<svg width="853.9137939453125px" height="135.21754150390626px" xmlns="http://www.w3.org/2000/svg" viewBox="-176.95689697265624 7.391229248046869 853.9137939453125 135.21754150390626" style="background: rgb(255, 255, 255);" preserveAspectRatio="xMidYMid"><defs><linearGradient id="editing-glowing-gradient" x1="0.9999238475781956" x2="0.00007615242180436521" y1="0.4912737967813583" y2="0.5087262032186417"><stop offset="0" stop-color="#f10700"></stop><stop offset="1" stop-color="#000000"></stop></linearGradient><filter id="editing-glowing" x="-100%" y="-100%" width="300%" height="300%"><feGaussianBlur in="SourceGraphic" result="blur" stdDeviation="1"></feGaussianBlur><feMerge><feMergeNode in="blur"></feMergeNode><feMergeNode in="SourceGraphic"></feMergeNode></feMerge></filter></defs><g filter="url(#editing-glowing)"><g transform="translate(-55.68845343589783, 108.52999877929688)"><path d="M40.37-39.84L40.37-39.84Q41.86-39.55 42.60-38.83L42.60-38.83L42.60-38.83Q43.34-38.11 43.34-37.15L43.34-37.15L43.34-37.15Q43.34-35.57 42.46-34.85L42.46-34.85L42.46-34.85Q41.57-34.13 39.65-34.27L39.65-34.27L39.65-34.27Q35.33-34.61 32.90-34.73L32.90-34.73L32.90-34.73Q30.48-34.85 26.54-34.90L26.54-34.90L26.54-34.90Q24.77-26.06 23.28-17.14L23.28-17.14L23.28-17.14Q22.75-13.87 22.18-9.58L22.18-9.58L22.18-9.58Q21.60-5.28 21.41-2.64L21.41-2.64L21.41-2.64Q21.31-1.25 20.26-0.50L20.26-0.50L20.26-0.50Q19.20 0.24 17.71 0.24L17.71 0.24L17.71 0.24Q16.13 0.24 15.26-0.53L15.26-0.53L15.26-0.53Q14.40-1.30 14.40-2.54L14.40-2.54L14.40-2.54Q14.40-3.70 14.76-6.36L14.76-6.36L14.76-6.36Q15.12-9.02 15.60-11.95L15.60-11.95L15.60-11.95Q16.13-14.88 16.42-17.04L16.42-17.04L16.42-17.04Q16.94-20.69 17.62-24.29L17.62-24.29L17.62-24.29Q18.29-27.89 18.96-31.10L18.96-31.10L18.96-31.10Q19.10-31.82 19.30-32.76L19.30-32.76L19.30-32.76Q19.49-33.70 19.73-34.85L19.73-34.85L19.73-34.85Q15.02-34.70 12.34-34.08L12.34-34.08L12.34-34.08Q9.65-33.46 8.52-32.33L8.52-32.33L8.52-32.33Q7.39-31.20 7.39-29.42L7.39-29.42L7.39-29.42Q7.39-27.79 8.35-26.30L8.35-26.30L8.35-26.30Q8.54-25.97 8.54-25.58L8.54-25.58L8.54-25.58Q8.54-24.67 7.46-23.88L7.46-23.88L7.46-23.88Q6.38-23.09 5.23-23.09L5.23-23.09L5.23-23.09Q4.42-23.09 3.89-23.57L3.89-23.57L3.89-23.57Q2.93-24.38 2.30-25.90L2.30-25.90L2.30-25.90Q1.68-27.41 1.68-29.33L1.68-29.33L1.68-29.33Q1.68-33.41 4.34-35.88L4.34-35.88L4.34-35.88Q7.01-38.35 12.46-39.50L12.46-39.50L12.46-39.50Q17.90-40.66 26.45-40.66L26.45-40.66L26.45-40.66Q31.73-40.66 34.87-40.46L34.87-40.46L34.87-40.46Q38.02-40.27 40.37-39.84L40.37-39.84ZM62.40-10.70L62.40-10.70Q63.02-10.70 63.38-10.13L63.38-10.13L63.38-10.13Q63.74-9.55 63.74-8.54L63.74-8.54L63.74-8.54Q63.74-6.62 62.83-5.57L62.83-5.57L62.83-5.57Q60.62-3.02 58.30-1.39L58.30-1.39L58.30-1.39Q55.97 0.24 52.99 0.24L52.99 0.24L52.99 0.24Q50.54 0.24 49.30-1.18L49.30-1.18L49.30-1.18Q48.05-2.59 48.05-5.28L48.05-5.28L48.05-5.28Q48.05-6.62 48.72-10.08L48.72-10.08L48.72-10.08Q49.34-13.10 49.34-14.26L49.34-14.26L49.34-14.26Q49.34-15.02 48.82-15.02L48.82-15.02L48.82-15.02Q48.19-15.02 47.04-13.42L47.04-13.42L47.04-13.42Q45.89-11.81 44.74-9.17L44.74-9.17L44.74-9.17Q43.58-6.53 42.86-3.60L42.86-3.60L42.86-3.60Q41.95 0.24 38.35 0.24L38.35 0.24L38.35 0.24Q36.91 0.24 36.46-0.79L36.46-0.79L36.46-0.79Q36-1.82 36-4.51L36-4.51L36-4.51Q36-6.05 36.05-6.96L36.05-6.96L36.10-10.80L36.10-10.80Q36.10-18.19 37.61-26.21L37.61-26.21L37.61-26.21Q39.12-34.22 42.07-39.67L42.07-39.67L42.07-39.67Q45.02-45.12 49.15-45.12L49.15-45.12L49.15-45.12Q51.36-45.12 52.73-43.22L52.73-43.22L52.73-43.22Q54.10-41.33 54.10-38.30L54.10-38.30L54.10-38.30Q54.10-33.46 51.26-28.25L51.26-28.25L51.26-28.25Q48.43-23.04 42.05-16.08L42.05-16.08L42.05-16.08Q41.90-13.58 41.90-10.94L41.90-10.94L41.90-10.94Q43.49-15.02 45.43-17.59L45.43-17.59L45.43-17.59Q47.38-20.16 49.27-21.26L49.27-21.26L49.27-21.26Q51.17-22.37 52.75-22.37L52.75-22.37L52.75-22.37Q55.87-22.37 55.87-19.25L55.87-19.25L55.87-19.25Q55.87-17.38 54.82-12.48L54.82-12.48L54.82-12.48Q53.90-8.30 53.90-6.96L53.90-6.96L53.90-6.96Q53.90-5.04 55.30-5.04L55.30-5.04L55.30-5.04Q56.26-5.04 57.58-6.22L57.58-6.22L57.58-6.22Q58.90-7.39 61.10-10.03L61.10-10.03L61.10-10.03Q61.68-10.70 62.40-10.70L62.40-10.70ZM48.14-40.37L48.14-40.37Q47.28-40.37 46.22-37.90L46.22-37.90L46.22-37.90Q45.17-35.42 44.18-31.22L44.18-31.22L44.18-31.22Q43.20-27.02 42.58-22.08L42.58-22.08L42.58-22.08Q45.55-25.58 47.50-29.71L47.50-29.71L47.50-29.71Q49.44-33.84 49.44-37.20L49.44-37.20L49.44-37.20Q49.44-38.74 49.10-39.55L49.10-39.55L49.10-39.55Q48.77-40.37 48.14-40.37L48.14-40.37ZM65.76 0.24L65.76 0.24Q62.78 0.24 61.01-1.92L61.01-1.92L61.01-1.92Q59.23-4.08 59.23-7.58L59.23-7.58L59.23-7.58Q59.23-11.42 61.01-14.86L61.01-14.86L61.01-14.86Q62.78-18.29 65.74-20.38L65.74-20.38L65.74-20.38Q68.69-22.46 72-22.46L72-22.46L72-22.46Q73.06-22.46 73.42-22.06L73.42-22.06L73.42-22.06Q73.78-21.65 74.02-20.59L74.02-20.59L74.02-20.59Q75.02-20.78 76.13-20.78L76.13-20.78L76.13-20.78Q78.48-20.78 78.48-19.10L78.48-19.10L78.48-19.10Q78.48-18.10 77.76-14.30L77.76-14.30L77.76-14.30Q76.66-8.78 76.66-6.62L76.66-6.62L76.66-6.62Q76.66-5.90 77.02-5.47L77.02-5.47L77.02-5.47Q77.38-5.04 77.95-5.04L77.95-5.04L77.95-5.04Q78.86-5.04 80.16-6.22L80.16-6.22L80.16-6.22Q81.46-7.39 83.66-10.03L83.66-10.03L83.66-10.03Q84.24-10.70 84.96-10.70L84.96-10.70L84.96-10.70Q85.58-10.70 85.94-10.13L85.94-10.13L85.94-10.13Q86.30-9.55 86.30-8.54L86.30-8.54L86.30-8.54Q86.30-6.62 85.39-5.57L85.39-5.57L85.39-5.57Q83.42-3.12 81.22-1.44L81.22-1.44L81.22-1.44Q79.01 0.24 76.94 0.24L76.94 0.24L76.94 0.24Q75.36 0.24 74.04-0.84L74.04-0.84L74.04-0.84Q72.72-1.92 72.05-3.79L72.05-3.79L72.05-3.79Q69.55 0.24 65.76 0.24L65.76 0.24ZM67.49-4.61L67.49-4.61Q68.54-4.61 69.50-5.86L69.50-5.86L69.50-5.86Q70.46-7.10 70.90-9.17L70.90-9.17L72.67-18L72.67-18Q70.66-17.95 68.95-16.49L68.95-16.49L68.95-16.49Q67.25-15.02 66.24-12.62L66.24-12.62L66.24-12.62Q65.23-10.22 65.23-7.54L65.23-7.54L65.23-7.54Q65.23-6.05 65.83-5.33L65.83-5.33L65.83-5.33Q66.43-4.61 67.49-4.61L67.49-4.61ZM85.82 0.24L85.82 0.24Q84.00 0.24 83.26-1.68L83.26-1.68L83.26-1.68Q82.51-3.60 82.51-7.82L82.51-7.82L82.51-7.82Q82.51-14.06 84.29-19.68L84.29-19.68L84.29-19.68Q84.72-21.07 85.70-21.72L85.70-21.72L85.70-21.72Q86.69-22.37 88.46-22.37L88.46-22.37L88.46-22.37Q89.42-22.37 89.81-22.13L89.81-22.13L89.81-22.13Q90.19-21.89 90.19-21.22L90.19-21.22L90.19-21.22Q90.19-20.45 89.47-17.76L89.47-17.76L89.47-17.76Q88.99-15.84 88.70-14.40L88.70-14.40L88.70-14.40Q88.42-12.96 88.22-10.85L88.22-10.85L88.22-10.85Q89.81-14.98 91.78-17.57L91.78-17.57L91.78-17.57Q93.74-20.16 95.64-21.26L95.64-21.26L95.64-21.26Q97.54-22.37 99.12-22.37L99.12-22.37L99.12-22.37Q102.24-22.37 102.24-19.25L102.24-19.25L102.24-19.25Q102.24-17.38 101.18-12.48L101.18-12.48L101.18-12.48Q100.27-8.30 100.27-6.96L100.27-6.96L100.27-6.96Q100.27-5.04 101.66-5.04L101.66-5.04L101.66-5.04Q102.62-5.04 103.94-6.22L103.94-6.22L103.94-6.22Q105.26-7.39 107.47-10.03L107.47-10.03L107.47-10.03Q108.05-10.70 108.77-10.70L108.77-10.70L108.77-10.70Q109.39-10.70 109.75-10.13L109.75-10.13L109.75-10.13Q110.11-9.55 110.11-8.54L110.11-8.54L110.11-8.54Q110.11-6.62 109.20-5.57L109.20-5.57L109.20-5.57Q107.14-3.02 104.76-1.39L104.76-1.39L104.76-1.39Q102.38 0.24 99.36 0.24L99.36 0.24L99.36 0.24Q96.91 0.24 95.66-1.18L95.66-1.18L95.66-1.18Q94.42-2.59 94.42-5.28L94.42-5.28L94.42-5.28Q94.42-6.62 95.09-10.08L95.09-10.08L95.09-10.08Q95.71-13.10 95.71-14.26L95.71-14.26L95.71-14.26Q95.71-15.02 95.18-15.02L95.18-15.02L95.18-15.02Q94.56-15.02 93.43-13.42L93.43-13.42L93.43-13.42Q92.30-11.81 91.13-9.17L91.13-9.17L91.13-9.17Q89.95-6.53 89.23-3.60L89.23-3.60L89.23-3.60Q88.70-1.34 88.01-0.55L88.01-0.55L88.01-0.55Q87.31 0.24 85.82 0.24L85.82 0.24ZM133.97-10.70L133.97-10.70Q134.59-10.70 134.95-10.13L134.95-10.13L134.95-10.13Q135.31-9.55 135.31-8.54L135.31-8.54L135.31-8.54Q135.31-6.62 134.40-5.57L134.40-5.57L134.40-5.57Q132.24-2.93 130.03-1.34L130.03-1.34L130.03-1.34Q127.82 0.24 124.80 0.24L124.80 0.24L124.80 0.24Q121.10 0.24 118.85-1.87L118.85-1.87L118.85-1.87Q116.59-3.98 116.59-7.49L116.59-7.49L116.59-7.49Q116.59-9.36 118.51-10.18L118.51-10.18L118.51-10.18Q120.62-11.09 121.54-12.12L121.54-12.12L121.54-12.12Q122.45-13.15 122.45-14.64L122.45-14.64L122.45-14.64Q122.45-15.50 122.09-15.94L122.09-15.94L122.09-15.94Q121.73-16.37 121.20-16.37L121.20-16.37L121.20-16.37Q119.90-16.37 118.34-14.50L118.34-14.50L118.34-14.50Q116.78-12.62 115.44-9.67L115.44-9.67L115.44-9.67Q114.10-6.72 113.33-3.60L113.33-3.60L113.33-3.60Q112.80-1.34 112.10-0.55L112.10-0.55L112.10-0.55Q111.41 0.24 109.92 0.24L109.92 0.24L109.92 0.24Q108.43 0.24 107.74-0.84L107.74-0.84L107.74-0.84Q107.04-1.92 106.80-4.18L106.80-4.18L106.80-4.18Q106.56-6.43 106.56-10.80L106.56-10.80L106.56-10.80Q106.56-18.19 108.07-26.21L108.07-26.21L108.07-26.21Q109.58-34.22 112.54-39.67L112.54-39.67L112.54-39.67Q115.49-45.12 119.62-45.12L119.62-45.12L119.62-45.12Q121.82-45.12 123.19-43.22L123.19-43.22L123.19-43.22Q124.56-41.33 124.56-38.30L124.56-38.30L124.56-38.30Q124.56-33.46 121.73-28.25L121.73-28.25L121.73-28.25Q118.90-23.04 112.51-16.08L112.51-16.08L112.51-16.08Q112.37-13.58 112.37-10.94L112.37-10.94L112.37-10.94Q114.67-16.94 117.65-19.66L117.65-19.66L117.65-19.66Q120.62-22.37 123.22-22.37L123.22-22.37L123.22-22.37Q125.62-22.37 127.08-20.74L127.08-20.74L127.08-20.74Q128.54-19.10 128.54-16.70L128.54-16.70L128.54-16.70Q128.54-14.06 127.20-11.86L127.20-11.86L127.20-11.86Q125.86-9.65 122.59-7.92L122.59-7.92L122.59-7.92Q122.78-6.62 123.77-5.83L123.77-5.83L123.77-5.83Q124.75-5.04 126.14-5.04L126.14-5.04L126.14-5.04Q127.63-5.04 129.02-6.19L129.02-6.19L129.02-6.19Q130.42-7.34 132.67-10.03L132.67-10.03L132.67-10.03Q133.25-10.70 133.97-10.70L133.97-10.70ZM118.61-40.37L118.61-40.37Q117.74-40.37 116.69-37.90L116.69-37.90L116.69-37.90Q115.63-35.42 114.65-31.22L114.65-31.22L114.65-31.22Q113.66-27.02 113.04-22.08L113.04-22.08L113.04-22.08Q116.02-25.58 117.96-29.71L117.96-29.71L117.96-29.71Q119.90-33.84 119.90-37.20L119.90-37.20L119.90-37.20Q119.90-38.74 119.57-39.55L119.57-39.55L119.57-39.55Q119.23-40.37 118.61-40.37L118.61-40.37ZM140.35 1.30L140.35 1.30Q137.86 1.30 136.54 0.14L136.54 0.14L136.54 0.14Q135.22-1.01 135.22-2.45L135.22-2.45L135.22-2.45Q135.22-3.70 136.13-4.61L136.13-4.61L136.13-4.61Q137.04-5.52 138.82-5.52L138.82-5.52L138.82-5.52Q139.44-5.52 140.28-5.40L140.28-5.40L140.28-5.40Q141.12-5.28 141.55-5.23L141.55-5.23L141.55-5.23Q141.50-6.48 141-7.58L141-7.58L141-7.58Q140.50-8.69 139.73-9.72L139.73-9.72L139.73-9.72Q138.96-10.75 138.29-11.52L138.29-11.52L138.29-11.52Q136.80-8.69 135.34-6.82L135.34-6.82L135.34-6.82Q133.87-4.94 132.14-3.26L132.14-3.26L132.14-3.26Q131.28-2.40 130.32-2.40L130.32-2.40L130.32-2.40Q129.55-2.40 129.07-2.95L129.07-2.95L129.07-2.95Q128.59-3.50 128.59-4.32L128.59-4.32L128.59-4.32Q128.59-5.28 129.26-6.10L129.26-6.10L129.89-6.86L129.89-6.86Q132.53-10.13 133.87-12.24L133.87-12.24L133.87-12.24Q134.69-13.63 135.79-15.96L135.79-15.96L135.79-15.96Q136.90-18.29 137.95-20.78L137.95-20.78L137.95-20.78Q138.86-22.90 141.74-22.90L141.74-22.90L141.74-22.90Q143.09-22.90 143.62-22.66L143.62-22.66L143.62-22.66Q144.14-22.42 144.14-21.89L144.14-21.89L144.14-21.89Q144.14-21.60 143.95-20.98L143.95-20.98L143.95-20.98Q143.76-20.35 143.42-19.73L143.42-19.73L143.42-19.73Q142.56-18 142.56-16.80L142.56-16.80L142.56-16.80Q142.56-16.08 143.06-15.22L143.06-15.22L143.06-15.22Q143.57-14.35 144.62-13.06L144.62-13.06L144.62-13.06Q146.16-11.04 146.95-9.62L146.95-9.62L146.95-9.62Q147.74-8.21 147.74-6.53L147.74-6.53L147.74-6.53Q147.74-6.05 147.65-5.18L147.65-5.18L147.65-5.18Q150-6.10 153.17-10.03L153.17-10.03L153.17-10.03Q153.74-10.70 154.46-10.70L154.46-10.70L154.46-10.70Q155.09-10.70 155.45-10.13L155.45-10.13L155.45-10.13Q155.81-9.55 155.81-8.54L155.81-8.54L155.81-8.54Q155.81-6.72 154.90-5.57L154.90-5.57L154.90-5.57Q152.50-2.59 150.31-1.51L150.31-1.51L150.31-1.51Q148.13-0.43 144.91-0.34L144.91-0.34L144.91-0.34Q142.99 1.30 140.35 1.30L140.35 1.30ZM183.79-13.44L183.79-13.44Q185.14-13.44 185.14-11.42L185.14-11.42L185.14-11.42Q185.14-7.63 179.18-7.63L179.18-7.63L179.18-7.63Q178.03-7.63 175.87-8.06L175.87-8.06L175.87-8.06Q176.50-5.09 176.90-1.46L176.90-1.46L176.90-1.46Q177.31 2.16 177.31 4.51L177.31 4.51L177.31 4.51Q177.31 9.70 175.63 12.43L175.63 12.43L175.63 12.43Q173.95 15.17 171.22 15.17L171.22 15.17L171.22 15.17Q167.76 15.17 166.30 10.27L166.30 10.27L166.30 10.27Q164.83 5.38 164.83-4.51L164.83-4.51L164.83-4.51Q164.83-13.73 166.82-23.21L166.82-23.21L166.82-23.21Q168.82-32.69 172.30-38.90L172.30-38.90L172.30-38.90Q175.78-45.12 179.95-45.12L179.95-45.12L179.95-45.12Q182.21-45.12 183.48-43.10L183.48-43.10L183.48-43.10Q184.75-41.09 184.75-37.68L184.75-37.68L184.75-37.68Q184.75-26.40 171.26-13.10L171.26-13.10L171.26-13.10Q170.78-8.40 170.78-4.85L170.78-4.85L170.78-4.85Q170.78 0.10 171.12 5.30L171.12 5.30L171.12 5.30Q171.46 10.51 172.22 10.51L172.22 10.51L172.22 10.51Q173.66 10.51 173.66 5.52L173.66 5.52L173.66 5.52Q173.66 1.78 173.16-1.73L173.16-1.73L173.16-1.73Q172.66-5.23 171.79-9.12L171.79-9.12L171.79-9.12Q171.74-9.74 172.20-10.70L172.20-10.70L172.20-10.70Q172.66-11.66 173.33-12.38L173.33-12.38L173.33-12.38Q174-13.10 174.53-13.10L174.53-13.10L174.53-13.10Q175.49-13.10 176.83-13.01L176.83-13.01L176.83-13.01Q177.26-12.96 177.84-12.96L177.84-12.96L177.84-12.96Q179.76-12.96 182.11-13.30L182.11-13.30L182.11-13.30Q182.50-13.34 182.93-13.39L182.93-13.39L182.93-13.39Q183.36-13.44 183.79-13.44L183.79-13.44ZM178.94-40.37L178.94-40.37Q178.08-40.37 176.81-37.44L176.81-37.44L176.81-37.44Q175.54-34.51 174.29-29.69L174.29-29.69L174.29-29.69Q173.04-24.86 172.13-19.49L172.13-19.49L172.13-19.49Q175.97-23.86 178.03-28.58L178.03-28.58L178.03-28.58Q180.10-33.31 180.14-37.44L180.14-37.44L180.14-37.44Q180.14-40.37 178.94-40.37L178.94-40.37ZM206.93-14.74L206.93-14.74Q207.55-14.74 207.89-14.11L207.89-14.11L207.89-14.11Q208.22-13.49 208.22-12.53L208.22-12.53L208.22-12.53Q208.22-10.22 206.83-9.79L206.83-9.79L206.83-9.79Q203.95-8.78 200.50-8.64L200.50-8.64L200.50-8.64Q199.58-4.61 196.90-2.18L196.90-2.18L196.90-2.18Q194.21 0.24 190.80 0.24L190.80 0.24L190.80 0.24Q187.92 0.24 185.88-1.15L185.88-1.15L185.88-1.15Q183.84-2.54 182.78-4.85L182.78-4.85L182.78-4.85Q181.73-7.15 181.73-9.84L181.73-9.84L181.73-9.84Q181.73-13.49 183.12-16.34L183.12-16.34L183.12-16.34Q184.51-19.20 186.96-20.81L186.96-20.81L186.96-20.81Q189.41-22.42 192.38-22.42L192.38-22.42L192.38-22.42Q196.03-22.42 198.26-19.90L198.26-19.90L198.26-19.90Q200.50-17.38 200.88-13.68L200.88-13.68L200.88-13.68Q203.14-13.82 206.26-14.64L206.26-14.64L206.26-14.64Q206.64-14.74 206.93-14.74L206.93-14.74ZM191.18-4.85L191.18-4.85Q192.72-4.85 193.85-6.10L193.85-6.10L193.85-6.10Q194.98-7.34 195.36-9.70L195.36-9.70L195.36-9.70Q193.87-10.70 193.08-12.34L193.08-12.34L193.08-12.34Q192.29-13.97 192.29-15.79L192.29-15.79L192.29-15.79Q192.29-16.56 192.43-17.33L192.43-17.33L192.19-17.33L192.19-17.33Q190.27-17.33 189-15.48L189-15.48L189-15.48Q187.73-13.63 187.73-10.27L187.73-10.27L187.73-10.27Q187.73-7.63 188.76-6.24L188.76-6.24L188.76-6.24Q189.79-4.85 191.18-4.85L191.18-4.85ZM207.50 0.24L207.50 0.24Q205.68 0.24 204.94-1.68L204.94-1.68L204.94-1.68Q204.19-3.60 204.19-7.82L204.19-7.82L204.19-7.82Q204.19-14.06 205.97-19.68L205.97-19.68L205.97-19.68Q206.40-21.07 207.38-21.72L207.38-21.72L207.38-21.72Q208.37-22.37 210.14-22.37L210.14-22.37L210.14-22.37Q211.10-22.37 211.49-22.13L211.49-22.13L211.49-22.13Q211.87-21.89 211.87-21.22L211.87-21.22L211.87-21.22Q211.87-20.45 211.15-17.76L211.15-17.76L211.15-17.76Q210.67-15.84 210.38-14.40L210.38-14.40L210.38-14.40Q210.10-12.96 209.90-10.85L209.90-10.85L209.90-10.85Q211.49-14.98 213.46-17.57L213.46-17.57L213.46-17.57Q215.42-20.16 217.32-21.26L217.32-21.26L217.32-21.26Q219.22-22.37 220.80-22.37L220.80-22.37L220.80-22.37Q223.92-22.37 223.92-19.25L223.92-19.25L223.92-19.25Q223.92-18.62 223.49-16.22L223.49-16.22L223.49-16.22Q223.10-14.30 223.10-13.82L223.10-13.82L223.10-13.82Q223.10-12.14 224.30-12.14L224.30-12.14L224.30-12.14Q225.65-12.14 227.76-14.26L227.76-14.26L227.76-14.26Q228.38-14.88 229.06-14.88L229.06-14.88L229.06-14.88Q229.68-14.88 230.04-14.33L230.04-14.33L230.04-14.33Q230.40-13.78 230.40-12.86L230.40-12.86L230.40-12.86Q230.40-11.09 229.44-10.08L229.44-10.08L229.44-10.08Q228.10-8.69 226.30-7.70L226.30-7.70L226.30-7.70Q224.50-6.72 222.48-6.72L222.48-6.72L222.48-6.72Q219.94-6.72 218.62-8.02L218.62-8.02L218.62-8.02Q217.30-9.31 217.30-11.52L217.30-11.52L217.30-11.52Q217.30-12.24 217.44-12.96L217.44-12.96L217.44-12.96Q217.54-13.92 217.54-14.26L217.54-14.26L217.54-14.26Q217.54-15.02 217.01-15.02L217.01-15.02L217.01-15.02Q216.29-15.02 215.11-13.42L215.11-13.42L215.11-13.42Q213.94-11.81 212.78-9.17L212.78-9.17L212.78-9.17Q211.63-6.53 210.91-3.60L210.91-3.60L210.91-3.60Q210.38-1.34 209.69-0.55L209.69-0.55L209.69-0.55Q208.99 0.24 207.50 0.24L207.50 0.24ZM262.42-14.59L262.42-14.59Q262.56-14.64 262.90-14.64L262.90-14.64L262.90-14.64Q263.62-14.64 264-14.16L264-14.16L264-14.16Q264.38-13.68 264.38-12.86L264.38-12.86L264.38-12.86Q264.38-11.38 263.81-10.54L263.81-10.54L263.81-10.54Q263.23-9.70 262.08-9.31L262.08-9.31L262.08-9.31Q259.87-8.59 257.38-8.59L257.38-8.59L257.38-8.59Q255.26-8.59 253.39-9.17L253.39-9.17L253.39-9.17Q252-6.91 250.32-4.51L250.32-4.51L250.32-4.51Q248.40-1.78 247.01-0.77L247.01-0.77L247.01-0.77Q245.62 0.24 243.84 0.24L243.84 0.24L243.84 0.24Q241.87 0.24 240.74-1.30L240.74-1.30L240.74-1.30Q239.62-2.83 239.33-6.14L239.33-6.14L239.33-6.14Q238.75-12.86 238.75-17.90L238.75-17.90L238.75-19.58L238.75-19.58Q238.80-21.17 239.62-21.79L239.62-21.79L239.62-21.79Q240.43-22.42 242.06-22.42L242.06-22.42L242.06-22.42Q243.31-22.42 243.91-21.86L243.91-21.86L243.91-21.86Q244.51-21.31 244.51-20.02L244.51-20.02L244.51-20.02Q244.51-14.50 245.18-5.66L245.18-5.66L245.18-5.66Q248.06-9.94 249.50-12.48L249.50-12.48L249.50-12.48Q248.78-13.87 248.78-15.79L248.78-15.79L248.78-15.79Q248.78-17.42 249.50-18.96L249.50-18.96L249.50-18.96Q250.22-20.50 251.47-21.46L251.47-21.46L251.47-21.46Q252.72-22.42 254.30-22.42L254.30-22.42L254.30-22.42Q255.70-22.42 256.56-21.43L256.56-21.43L256.56-21.43Q257.42-20.45 257.42-18.58L257.42-18.58L257.42-18.58Q257.42-16.42 256.27-13.63L256.27-13.63L256.27-13.63Q258.10-13.73 261.12-14.35L261.12-14.35L262.42-14.59ZM266.50-25.54L266.50-25.54Q264.48-25.54 263.47-26.47L263.47-26.47L263.47-26.47Q262.46-27.41 262.46-29.09L262.46-29.09L262.46-29.09Q262.46-30.77 263.78-31.90L263.78-31.90L263.78-31.90Q265.10-33.02 267.07-33.02L267.07-33.02L267.07-33.02Q268.85-33.02 269.95-32.16L269.95-32.16L269.95-32.16Q271.06-31.30 271.06-29.71L271.06-29.71L271.06-29.71Q271.06-27.79 269.81-26.66L269.81-26.66L269.81-26.66Q268.56-25.54 266.50-25.54L266.50-25.54ZM266.11 0.24L266.11 0.24Q262.99 0.24 261.58-1.97L261.58-1.97L261.58-1.97Q260.16-4.18 260.16-7.82L260.16-7.82L260.16-7.82Q260.16-9.98 260.71-13.37L260.71-13.37L260.71-13.37Q261.26-16.75 262.13-19.68L262.13-19.68L262.13-19.68Q262.56-21.22 263.28-21.79L263.28-21.79L263.28-21.79Q264-22.37 265.58-22.37L265.58-22.37L265.58-22.37Q268.03-22.37 268.03-20.74L268.03-20.74L268.03-20.74Q268.03-19.54 267.12-15.17L267.12-15.17L267.12-15.17Q265.97-9.89 265.97-8.02L265.97-8.02L265.97-8.02Q265.97-6.58 266.35-5.81L266.35-5.81L266.35-5.81Q266.74-5.04 267.65-5.04L267.65-5.04L267.65-5.04Q268.51-5.04 269.81-6.24L269.81-6.24L269.81-6.24Q271.10-7.44 273.26-10.03L273.26-10.03L273.26-10.03Q273.84-10.70 274.56-10.70L274.56-10.70L274.56-10.70Q275.18-10.70 275.54-10.13L275.54-10.13L275.54-10.13Q275.90-9.55 275.90-8.54L275.90-8.54L275.90-8.54Q275.90-6.62 274.99-5.57L274.99-5.57L274.99-5.57Q270.24 0.24 266.11 0.24L266.11 0.24ZM280.94 1.30L280.94 1.30Q278.45 1.30 277.13 0.14L277.13 0.14L277.13 0.14Q275.81-1.01 275.81-2.45L275.81-2.45L275.81-2.45Q275.81-3.70 276.72-4.61L276.72-4.61L276.72-4.61Q277.63-5.52 279.41-5.52L279.41-5.52L279.41-5.52Q280.03-5.52 280.87-5.40L280.87-5.40L280.87-5.40Q281.71-5.28 282.14-5.23L282.14-5.23L282.14-5.23Q282.10-6.48 281.59-7.58L281.59-7.58L281.59-7.58Q281.09-8.69 280.32-9.72L280.32-9.72L280.32-9.72Q279.55-10.75 278.88-11.52L278.88-11.52L278.88-11.52Q277.39-8.69 275.93-6.82L275.93-6.82L275.93-6.82Q274.46-4.94 272.74-3.26L272.74-3.26L272.74-3.26Q271.87-2.40 270.91-2.40L270.91-2.40L270.91-2.40Q270.14-2.40 269.66-2.95L269.66-2.95L269.66-2.95Q269.18-3.50 269.18-4.32L269.18-4.32L269.18-4.32Q269.18-5.28 269.86-6.10L269.86-6.10L270.48-6.86L270.48-6.86Q273.12-10.13 274.46-12.24L274.46-12.24L274.46-12.24Q275.28-13.63 276.38-15.96L276.38-15.96L276.38-15.96Q277.49-18.29 278.54-20.78L278.54-20.78L278.54-20.78Q279.46-22.90 282.34-22.90L282.34-22.90L282.34-22.90Q283.68-22.90 284.21-22.66L284.21-22.66L284.21-22.66Q284.74-22.42 284.74-21.89L284.74-21.89L284.74-21.89Q284.74-21.60 284.54-20.98L284.54-20.98L284.54-20.98Q284.35-20.35 284.02-19.73L284.02-19.73L284.02-19.73Q283.15-18 283.15-16.80L283.15-16.80L283.15-16.80Q283.15-16.08 283.66-15.22L283.66-15.22L283.66-15.22Q284.16-14.35 285.22-13.06L285.22-13.06L285.22-13.06Q286.75-11.04 287.54-9.62L287.54-9.62L287.54-9.62Q288.34-8.21 288.34-6.53L288.34-6.53L288.34-6.53Q288.34-6.05 288.24-5.18L288.24-5.18L288.24-5.18Q290.59-6.10 293.76-10.03L293.76-10.03L293.76-10.03Q294.34-10.70 295.06-10.70L295.06-10.70L295.06-10.70Q295.68-10.70 296.04-10.13L296.04-10.13L296.04-10.13Q296.40-9.55 296.40-8.54L296.40-8.54L296.40-8.54Q296.40-6.72 295.49-5.57L295.49-5.57L295.49-5.57Q293.09-2.59 290.90-1.51L290.90-1.51L290.90-1.51Q288.72-0.43 285.50-0.34L285.50-0.34L285.50-0.34Q283.58 1.30 280.94 1.30L280.94 1.30ZM298.80-25.54L298.80-25.54Q296.78-25.54 295.78-26.47L295.78-26.47L295.78-26.47Q294.77-27.41 294.77-29.09L294.77-29.09L294.77-29.09Q294.77-30.77 296.09-31.90L296.09-31.90L296.09-31.90Q297.41-33.02 299.38-33.02L299.38-33.02L299.38-33.02Q301.15-33.02 302.26-32.16L302.26-32.16L302.26-32.16Q303.36-31.30 303.36-29.71L303.36-29.71L303.36-29.71Q303.36-27.79 302.11-26.66L302.11-26.66L302.11-26.66Q300.86-25.54 298.80-25.54L298.80-25.54ZM298.42 0.24L298.42 0.24Q295.30 0.24 293.88-1.97L293.88-1.97L293.88-1.97Q292.46-4.18 292.46-7.82L292.46-7.82L292.46-7.82Q292.46-9.98 293.02-13.37L293.02-13.37L293.02-13.37Q293.57-16.75 294.43-19.68L294.43-19.68L294.43-19.68Q294.86-21.22 295.58-21.79L295.58-21.79L295.58-21.79Q296.30-22.37 297.89-22.37L297.89-22.37L297.89-22.37Q300.34-22.37 300.34-20.74L300.34-20.74L300.34-20.74Q300.34-19.54 299.42-15.17L299.42-15.17L299.42-15.17Q298.27-9.89 298.27-8.02L298.27-8.02L298.27-8.02Q298.27-6.58 298.66-5.81L298.66-5.81L298.66-5.81Q299.04-5.04 299.95-5.04L299.95-5.04L299.95-5.04Q300.82-5.04 302.11-6.24L302.11-6.24L302.11-6.24Q303.41-7.44 305.57-10.03L305.57-10.03L305.57-10.03Q306.14-10.70 306.86-10.70L306.86-10.70L306.86-10.70Q307.49-10.70 307.85-10.13L307.85-10.13L307.85-10.13Q308.21-9.55 308.21-8.54L308.21-8.54L308.21-8.54Q308.21-6.62 307.30-5.57L307.30-5.57L307.30-5.57Q302.54 0.24 298.42 0.24L298.42 0.24ZM325.73-10.70L325.73-10.70Q326.35-10.70 326.71-10.13L326.71-10.13L326.71-10.13Q327.07-9.55 327.07-8.54L327.07-8.54L327.07-8.54Q327.07-6.62 326.16-5.57L326.16-5.57L326.16-5.57Q324.10-3.02 321.65-1.39L321.65-1.39L321.65-1.39Q319.20 0.24 316.03 0.24L316.03 0.24L316.03 0.24Q306.24 0.24 306.24-13.54L306.24-13.54L306.24-13.54Q306.24-15.65 306.38-17.81L306.38-17.81L304.51-17.81L304.51-17.81Q303.07-17.81 302.57-18.34L302.57-18.34L302.57-18.34Q302.06-18.86 302.06-20.02L302.06-20.02L302.06-20.02Q302.06-22.70 304.22-22.70L304.22-22.70L306.96-22.70L306.96-22.70Q307.78-27.98 309.46-32.35L309.46-32.35L309.46-32.35Q311.14-36.72 313.51-39.31L313.51-39.31L313.51-39.31Q315.89-41.90 318.62-41.90L318.62-41.90L318.62-41.90Q320.64-41.90 321.79-40.13L321.79-40.13L321.79-40.13Q322.94-38.35 322.94-35.66L322.94-35.66L322.94-35.66Q322.94-28.22 316.70-22.70L316.70-22.70L322.08-22.70L322.08-22.70Q322.85-22.70 323.18-22.37L323.18-22.37L323.18-22.37Q323.52-22.03 323.52-21.12L323.52-21.12L323.52-21.12Q323.52-17.81 318.10-17.81L318.10-17.81L312.24-17.81L312.24-17.81Q312.14-15.41 312.14-14.06L312.14-14.06L312.14-14.06Q312.14-9.07 313.32-7.06L313.32-7.06L313.32-7.06Q314.50-5.04 317.04-5.04L317.04-5.04L317.04-5.04Q319.10-5.04 320.69-6.29L320.69-6.29L320.69-6.29Q322.27-7.54 324.43-10.03L324.43-10.03L324.43-10.03Q325.01-10.70 325.73-10.70L325.73-10.70ZM317.33-37.30L317.33-37.30Q316.61-37.30 315.72-35.50L315.72-35.50L315.72-35.50Q314.83-33.70 314.04-30.50L314.04-30.50L314.04-30.50Q313.25-27.31 312.72-23.42L312.72-23.42L312.72-23.42Q315.55-25.87 316.97-28.92L316.97-28.92L316.97-28.92Q318.38-31.97 318.38-34.46L318.38-34.46L318.38-34.46Q318.38-37.30 317.33-37.30L317.33-37.30ZM329.47-25.54L329.47-25.54Q327.46-25.54 326.45-26.47L326.45-26.47L326.45-26.47Q325.44-27.41 325.44-29.09L325.44-29.09L325.44-29.09Q325.44-30.77 326.76-31.90L326.76-31.90L326.76-31.90Q328.08-33.02 330.05-33.02L330.05-33.02L330.05-33.02Q331.82-33.02 332.93-32.16L332.93-32.16L332.93-32.16Q334.03-31.30 334.03-29.71L334.03-29.71L334.03-29.71Q334.03-27.79 332.78-26.66L332.78-26.66L332.78-26.66Q331.54-25.54 329.47-25.54L329.47-25.54ZM329.09 0.24L329.09 0.24Q325.97 0.24 324.55-1.97L324.55-1.97L324.55-1.97Q323.14-4.18 323.14-7.82L323.14-7.82L323.14-7.82Q323.14-9.98 323.69-13.37L323.69-13.37L323.69-13.37Q324.24-16.75 325.10-19.68L325.10-19.68L325.10-19.68Q325.54-21.22 326.26-21.79L326.26-21.79L326.26-21.79Q326.98-22.37 328.56-22.37L328.56-22.37L328.56-22.37Q331.01-22.37 331.01-20.74L331.01-20.74L331.01-20.74Q331.01-19.54 330.10-15.17L330.10-15.17L330.10-15.17Q328.94-9.89 328.94-8.02L328.94-8.02L328.94-8.02Q328.94-6.58 329.33-5.81L329.33-5.81L329.33-5.81Q329.71-5.04 330.62-5.04L330.62-5.04L330.62-5.04Q331.49-5.04 332.78-6.24L332.78-6.24L332.78-6.24Q334.08-7.44 336.24-10.03L336.24-10.03L336.24-10.03Q336.82-10.70 337.54-10.70L337.54-10.70L337.54-10.70Q338.16-10.70 338.52-10.13L338.52-10.13L338.52-10.13Q338.88-9.55 338.88-8.54L338.88-8.54L338.88-8.54Q338.88-6.62 337.97-5.57L337.97-5.57L337.97-5.57Q333.22 0.24 329.09 0.24L329.09 0.24ZM338.40 0.24L338.40 0.24Q336.58 0.24 335.83-1.68L335.83-1.68L335.83-1.68Q335.09-3.60 335.09-7.82L335.09-7.82L335.09-7.82Q335.09-14.06 336.86-19.68L336.86-19.68L336.86-19.68Q337.30-21.07 338.28-21.72L338.28-21.72L338.28-21.72Q339.26-22.37 341.04-22.37L341.04-22.37L341.04-22.37Q342.00-22.37 342.38-22.13L342.38-22.13L342.38-22.13Q342.77-21.89 342.77-21.22L342.77-21.22L342.77-21.22Q342.77-20.45 342.05-17.76L342.05-17.76L342.05-17.76Q341.57-15.84 341.28-14.40L341.28-14.40L341.28-14.40Q340.99-12.96 340.80-10.85L340.80-10.85L340.80-10.85Q342.38-14.98 344.35-17.57L344.35-17.57L344.35-17.57Q346.32-20.16 348.22-21.26L348.22-21.26L348.22-21.26Q350.11-22.37 351.70-22.37L351.70-22.37L351.70-22.37Q354.82-22.37 354.82-19.25L354.82-19.25L354.82-19.25Q354.82-17.38 353.76-12.48L353.76-12.48L353.76-12.48Q352.85-8.30 352.85-6.96L352.85-6.96L352.85-6.96Q352.85-5.04 354.24-5.04L354.24-5.04L354.24-5.04Q355.20-5.04 356.52-6.22L356.52-6.22L356.52-6.22Q357.84-7.39 360.05-10.03L360.05-10.03L360.05-10.03Q360.62-10.70 361.34-10.70L361.34-10.70L361.34-10.70Q361.97-10.70 362.33-10.13L362.33-10.13L362.33-10.13Q362.69-9.55 362.69-8.54L362.69-8.54L362.69-8.54Q362.69-6.62 361.78-5.57L361.78-5.57L361.78-5.57Q359.71-3.02 357.34-1.39L357.34-1.39L357.34-1.39Q354.96 0.24 351.94 0.24L351.94 0.24L351.94 0.24Q349.49 0.24 348.24-1.18L348.24-1.18L348.24-1.18Q346.99-2.59 346.99-5.28L346.99-5.28L346.99-5.28Q346.99-6.62 347.66-10.08L347.66-10.08L347.66-10.08Q348.29-13.10 348.29-14.26L348.29-14.26L348.29-14.26Q348.29-15.02 347.76-15.02L347.76-15.02L347.76-15.02Q347.14-15.02 346.01-13.42L346.01-13.42L346.01-13.42Q344.88-11.81 343.70-9.17L343.70-9.17L343.70-9.17Q342.53-6.53 341.81-3.60L341.81-3.60L341.81-3.60Q341.28-1.34 340.58-0.55L340.58-0.55L340.58-0.55Q339.89 0.24 338.40 0.24L338.40 0.24ZM383.38-10.61L383.38-10.61Q384.00-10.61 384.36-10.01L384.36-10.01L384.36-10.01Q384.72-9.41 384.72-8.50L384.72-8.50L384.72-8.50Q384.72-7.39 384.38-6.77L384.38-6.77L384.38-6.77Q384.05-6.14 383.33-5.66L383.33-5.66L383.33-5.66Q379.20-2.88 377.28-1.54L377.28-1.54L374.21 0.53L374.21 0.53Q372.38 10.46 369.43 16.15L369.43 16.15L369.43 16.15Q366.48 21.84 361.92 21.84L361.92 21.84L361.92 21.84Q359.47 21.84 357.94 20.33L357.94 20.33L357.94 20.33Q356.40 18.82 356.40 16.37L356.40 16.37L356.40 16.37Q356.40 12.96 359.09 9.05L359.09 9.05L359.09 9.05Q361.78 5.14 369.17-0.58L369.17-0.58L369.46-2.45L369.46-2.45Q368.64-1.15 367.32-0.46L367.32-0.46L367.32-0.46Q366.00 0.24 364.70 0.24L364.70 0.24L364.70 0.24Q361.73 0.24 359.95-1.92L359.95-1.92L359.95-1.92Q358.18-4.08 358.18-7.58L358.18-7.58L358.18-7.58Q358.18-11.42 359.95-14.86L359.95-14.86L359.95-14.86Q361.73-18.29 364.68-20.38L364.68-20.38L364.68-20.38Q367.63-22.46 370.94-22.46L370.94-22.46L370.94-22.46Q372.00-22.46 372.36-22.06L372.36-22.06L372.36-22.06Q372.72-21.65 372.96-20.59L372.96-20.59L372.96-20.59Q373.87-20.78 375.07-20.78L375.07-20.78L375.07-20.78Q376.27-20.78 376.78-20.42L376.78-20.42L376.78-20.42Q377.28-20.06 377.28-19.01L377.28-19.01L377.28-19.01Q377.28-18.43 377.23-18.10L377.23-18.10L377.23-18.10Q377.04-16.61 376.03-10.56L376.03-10.56L376.03-10.56Q375.84-9.41 375.62-8.04L375.62-8.04L375.62-8.04Q375.41-6.67 375.17-5.14L375.17-5.14L375.17-5.14Q378.86-8.02 382.27-10.22L382.27-10.22L382.27-10.22Q382.90-10.61 383.38-10.61L383.38-10.61ZM366.43-4.61L366.43-4.61Q367.54-4.61 368.54-5.95L368.54-5.95L368.54-5.95Q369.55-7.30 369.98-9.79L369.98-9.79L371.52-18L371.52-18Q369.55-17.95 367.87-16.49L367.87-16.49L367.87-16.49Q366.19-15.02 365.18-12.62L365.18-12.62L365.18-12.62Q364.18-10.22 364.18-7.54L364.18-7.54L364.18-7.54Q364.18-6.05 364.78-5.33L364.78-5.33L364.78-5.33Q365.38-4.61 366.43-4.61L366.43-4.61ZM362.45 17.18L362.45 17.18Q363.65 17.18 365.16 14.30L365.16 14.30L365.16 14.30Q366.67 11.42 368.06 5.14L368.06 5.14L368.06 5.14Q364.37 8.30 362.74 10.85L362.74 10.85L362.74 10.85Q361.10 13.39 361.10 15.31L361.10 15.31L361.10 15.31Q361.10 16.13 361.42 16.66L361.42 16.66L361.42 16.66Q361.73 17.18 362.45 17.18L362.45 17.18ZM397.92 0.24L397.92 0.24Q396.10 0.24 395.35-1.68L395.35-1.68L395.35-1.68Q394.61-3.60 394.61-7.82L394.61-7.82L394.61-7.82Q394.61-14.06 396.38-19.68L396.38-19.68L396.38-19.68Q396.82-21.07 397.80-21.72L397.80-21.72L397.80-21.72Q398.78-22.37 400.56-22.37L400.56-22.37L400.56-22.37Q401.52-22.37 401.90-22.13L401.90-22.13L401.90-22.13Q402.29-21.89 402.29-21.22L402.29-21.22L402.29-21.22Q402.29-20.45 401.57-17.76L401.57-17.76L401.57-17.76Q401.09-15.84 400.80-14.42L400.80-14.42L400.80-14.42Q400.51-13.01 400.32-10.90L400.32-10.90L400.32-10.90Q401.62-14.64 403.42-17.23L403.42-17.23L403.42-17.23Q405.22-19.82 407.11-21.10L407.11-21.10L407.11-21.10Q409.01-22.37 410.69-22.37L410.69-22.37L410.69-22.37Q412.37-22.37 413.06-21.60L413.06-21.60L413.06-21.60Q413.76-20.83 413.76-19.25L413.76-19.25L413.76-19.25Q413.76-17.71 412.85-13.68L412.85-13.68L412.85-13.68Q412.46-11.95 412.32-11.09L412.32-11.09L412.32-11.09Q414.72-16.99 417.65-19.68L417.65-19.68L417.65-19.68Q420.58-22.37 423.12-22.37L423.12-22.37L423.12-22.37Q426.24-22.37 426.24-19.25L426.24-19.25L426.24-19.25Q426.24-17.38 425.18-12.48L425.18-12.48L425.18-12.48Q424.27-8.30 424.27-6.96L424.27-6.96L424.27-6.96Q424.27-5.04 425.66-5.04L425.66-5.04L425.66-5.04Q426.62-5.04 427.94-6.22L427.94-6.22L427.94-6.22Q429.26-7.39 431.47-10.03L431.47-10.03L431.47-10.03Q432.05-10.70 432.77-10.70L432.77-10.70L432.77-10.70Q433.39-10.70 433.75-10.13L433.75-10.13L433.75-10.13Q434.11-9.55 434.11-8.54L434.11-8.54L434.11-8.54Q434.11-6.62 433.20-5.57L433.20-5.57L433.20-5.57Q431.14-3.02 428.76-1.39L428.76-1.39L428.76-1.39Q426.38 0.24 423.36 0.24L423.36 0.24L423.36 0.24Q420.91 0.24 419.66-1.18L419.66-1.18L419.66-1.18Q418.42-2.59 418.42-5.28L418.42-5.28L418.42-5.28Q418.42-6.62 419.09-10.08L419.09-10.08L419.09-10.08Q419.71-13.10 419.71-14.26L419.71-14.26L419.71-14.26Q419.71-15.02 419.18-15.02L419.18-15.02L419.18-15.02Q418.56-15.02 417.41-13.42L417.41-13.42L417.41-13.42Q416.26-11.81 415.10-9.17L415.10-9.17L415.10-9.17Q413.95-6.53 413.23-3.60L413.23-3.60L413.23-3.60Q412.70-1.30 412.01-0.53L412.01-0.53L412.01-0.53Q411.31 0.24 409.78 0.24L409.78 0.24L409.78 0.24Q408.19 0.24 407.40-1.27L407.40-1.27L407.40-1.27Q406.61-2.78 406.61-4.94L406.61-4.94L406.61-4.94Q406.61-6.77 407.09-10.22L407.09-10.22L407.09-10.22Q407.47-13.30 407.47-14.26L407.47-14.26L407.47-14.26Q407.47-15.02 406.94-15.02L406.94-15.02L406.94-15.02Q406.22-15.02 405.12-13.30L405.12-13.30L405.12-13.30Q404.02-11.57 402.98-8.88L402.98-8.88L402.98-8.88Q401.95-6.19 401.33-3.60L401.33-3.60L401.33-3.60Q400.80-1.34 400.10-0.55L400.10-0.55L400.10-0.55Q399.41 0.24 397.92 0.24L397.92 0.24ZM454.80-10.61L454.80-10.61Q455.42-10.61 455.78-10.01L455.78-10.01L455.78-10.01Q456.14-9.41 456.14-8.50L456.14-8.50L456.14-8.50Q456.14-7.39 455.81-6.77L455.81-6.77L455.81-6.77Q455.47-6.14 454.75-5.66L454.75-5.66L445.54 0.53L445.54 0.53Q443.71 10.46 440.76 16.15L440.76 16.15L440.76 16.15Q437.81 21.84 433.25 21.84L433.25 21.84L433.25 21.84Q430.80 21.84 429.26 20.33L429.26 20.33L429.26 20.33Q427.73 18.82 427.73 16.37L427.73 16.37L427.73 16.37Q427.73 14.11 428.76 11.76L428.76 11.76L428.76 11.76Q429.79 9.41 432.60 6.36L432.60 6.36L432.60 6.36Q435.41 3.31 440.54-0.62L440.54-0.62L440.69-1.73L440.69-1.73Q441.02-3.50 441.46-6.82L441.46-6.82L441.46-6.82Q440.50-3.36 438.77-1.56L438.77-1.56L438.77-1.56Q437.04 0.24 435.12 0.24L435.12 0.24L435.12 0.24Q432.96 0.24 431.59-1.75L431.59-1.75L431.59-1.75Q430.22-3.74 430.22-6.72L430.22-6.72L430.22-6.72Q430.22-10.32 430.70-13.32L430.70-13.32L430.70-13.32Q431.18-16.32 432.29-19.68L432.29-19.68L432.29-19.68Q432.77-21.12 433.63-21.74L433.63-21.74L433.63-21.74Q434.50-22.37 436.37-22.37L436.37-22.37L436.37-22.37Q437.42-22.37 437.83-22.03L437.83-22.03L437.83-22.03Q438.24-21.70 438.24-21.02L438.24-21.02L438.24-21.02Q438.24-20.64 437.71-18.43L437.71-18.43L437.71-18.43Q437.23-16.66 436.94-15.22L436.94-15.22L436.94-15.22Q436.56-13.25 436.27-11.45L436.27-11.45L436.27-11.45Q435.98-9.65 435.98-8.50L435.98-8.50L435.98-8.50Q435.98-6.67 436.99-6.67L436.99-6.67L436.99-6.67Q437.71-6.67 438.79-8.11L438.79-8.11L438.79-8.11Q439.87-9.55 441.10-12.48L441.10-12.48L441.10-12.48Q442.32-15.41 443.47-19.68L443.47-19.68L443.47-19.68Q443.86-21.12 444.65-21.74L444.65-21.74L444.65-21.74Q445.44-22.37 447.02-22.37L447.02-22.37L447.02-22.37Q448.13-22.37 448.56-22.08L448.56-22.08L448.56-22.08Q448.99-21.79 448.99-21.12L448.99-21.12L448.99-21.12Q448.99-19.92 447.74-12.86L447.74-12.86L446.50-5.14L446.50-5.14Q450.19-7.92 453.70-10.22L453.70-10.22L453.70-10.22Q454.32-10.61 454.80-10.61L454.80-10.61ZM433.78 17.18L433.78 17.18Q434.98 17.18 436.46 14.40L436.46 14.40L436.46 14.40Q437.95 11.62 439.44 5.14L439.44 5.14L439.44 5.14Q435.74 8.26 434.09 10.82L434.09 10.82L434.09 10.82Q432.43 13.39 432.43 15.31L432.43 15.31L432.43 15.31Q432.43 16.13 432.74 16.66L432.74 16.66L432.74 16.66Q433.06 17.18 433.78 17.18L433.78 17.18ZM491.57-10.70L491.57-10.70Q492.19-10.70 492.55-10.13L492.55-10.13L492.55-10.13Q492.91-9.55 492.91-8.54L492.91-8.54L492.91-8.54Q492.91-6.62 492-5.57L492-5.57L492-5.57Q489.94-3.02 487.56-1.39L487.56-1.39L487.56-1.39Q485.18 0.24 482.16 0.24L482.16 0.24L482.16 0.24Q479.62 0.24 478.03-1.58L478.03-1.58L478.03-1.58Q475.30 0.19 472.32 0.24L472.32 0.24L472.32 0.24Q471.70 9.50 469.49 15.72L469.49 15.72L469.49 15.72Q467.28 21.94 463.01 21.94L463.01 21.94L463.01 21.94Q460.42 21.94 459.17 20.06L459.17 20.06L459.17 20.06Q457.92 18.19 457.92 14.88L457.92 14.88L457.92 14.88Q457.92 10.18 460.08 3.91L460.08 3.91L460.08 3.91Q462.24-2.35 466.75-9.89L466.75-9.89L466.75-9.89Q466.75-16.90 466.66-19.63L466.66-19.63L466.66-19.63Q466.61-21.02 467.76-21.84L467.76-21.84L467.76-21.84Q468.91-22.66 470.64-22.66L470.64-22.66L470.64-22.66Q471.65-22.66 472.10-22.25L472.10-22.25L472.10-22.25Q472.56-21.84 472.61-20.64L472.61-20.64L472.61-20.64Q472.61-19.44 472.66-18.86L472.66-18.86L472.66-18.86Q474.19-20.78 475.68-21.62L475.68-21.62L475.68-21.62Q477.17-22.46 478.85-22.46L478.85-22.46L478.85-22.46Q481.54-22.46 483.24-20.30L483.24-20.30L483.24-20.30Q484.94-18.14 484.94-14.64L484.94-14.64L484.94-14.64Q484.94-12.10 484.13-9.70L484.13-9.70L484.13-9.70Q483.31-7.30 481.87-5.33L481.87-5.33L481.87-5.33Q482.88-5.04 483.55-5.04L483.55-5.04L483.55-5.04Q485.14-5.04 486.58-6.19L486.58-6.19L486.58-6.19Q488.02-7.34 490.27-10.03L490.27-10.03L490.27-10.03Q490.85-10.70 491.57-10.70L491.57-10.70ZM472.56-4.37L472.56-4.37Q474.29-4.75 475.75-6.26L475.75-6.26L475.75-6.26Q477.22-7.78 478.08-10.01L478.08-10.01L478.08-10.01Q478.94-12.24 478.94-14.69L478.94-14.69L478.94-14.69Q478.94-16.13 478.37-16.87L478.37-16.87L478.37-16.87Q477.79-17.62 476.83-17.62L476.83-17.62L476.83-17.62Q475.10-17.62 472.66-13.97L472.66-13.97L472.66-13.97Q472.61-11.86 472.61-7.78L472.61-7.78L472.61-7.78Q472.61-5.57 472.56-4.37L472.56-4.37ZM463.39 17.23L463.39 17.23Q464.69 17.23 465.55 11.59L465.55 11.59L465.55 11.59Q466.42 5.95 466.66-2.45L466.66-2.45L466.66-2.45Q464.59 2.35 463.39 6.72L463.39 6.72L463.39 6.72Q462.19 11.09 462.19 14.06L462.19 14.06L462.19 14.06Q462.19 15.60 462.55 16.42L462.55 16.42L462.55 16.42Q462.91 17.23 463.39 17.23L463.39 17.23ZM492.43 0.24L492.43 0.24Q490.61 0.24 489.86-1.68L489.86-1.68L489.86-1.68Q489.12-3.60 489.12-7.82L489.12-7.82L489.12-7.82Q489.12-14.06 490.90-19.68L490.90-19.68L490.90-19.68Q491.33-21.07 492.31-21.72L492.31-21.72L492.31-21.72Q493.30-22.37 495.07-22.37L495.07-22.37L495.07-22.37Q496.03-22.37 496.42-22.13L496.42-22.13L496.42-22.13Q496.80-21.89 496.80-21.22L496.80-21.22L496.80-21.22Q496.80-20.45 496.08-17.76L496.08-17.76L496.08-17.76Q495.60-15.84 495.31-14.40L495.31-14.40L495.31-14.40Q495.02-12.96 494.83-10.85L494.83-10.85L494.83-10.85Q496.42-14.98 498.38-17.57L498.38-17.57L498.38-17.57Q500.35-20.16 502.25-21.26L502.25-21.26L502.25-21.26Q504.14-22.37 505.73-22.37L505.73-22.37L505.73-22.37Q508.85-22.37 508.85-19.25L508.85-19.25L508.85-19.25Q508.85-18.62 508.42-16.22L508.42-16.22L508.42-16.22Q508.03-14.30 508.03-13.82L508.03-13.82L508.03-13.82Q508.03-12.14 509.23-12.14L509.23-12.14L509.23-12.14Q510.58-12.14 512.69-14.26L512.69-14.26L512.69-14.26Q513.31-14.88 513.98-14.88L513.98-14.88L513.98-14.88Q514.61-14.88 514.97-14.33L514.97-14.33L514.97-14.33Q515.33-13.78 515.33-12.86L515.33-12.86L515.33-12.86Q515.33-11.09 514.37-10.08L514.37-10.08L514.37-10.08Q513.02-8.69 511.22-7.70L511.22-7.70L511.22-7.70Q509.42-6.72 507.41-6.72L507.41-6.72L507.41-6.72Q504.86-6.72 503.54-8.02L503.54-8.02L503.54-8.02Q502.22-9.31 502.22-11.52L502.22-11.52L502.22-11.52Q502.22-12.24 502.37-12.96L502.37-12.96L502.37-12.96Q502.46-13.92 502.46-14.26L502.46-14.26L502.46-14.26Q502.46-15.02 501.94-15.02L501.94-15.02L501.94-15.02Q501.22-15.02 500.04-13.42L500.04-13.42L500.04-13.42Q498.86-11.81 497.71-9.17L497.71-9.17L497.71-9.17Q496.56-6.53 495.84-3.60L495.84-3.60L495.84-3.60Q495.31-1.34 494.62-0.55L494.62-0.55L494.62-0.55Q493.92 0.24 492.43 0.24L492.43 0.24ZM535.34-14.74L535.34-14.74Q535.97-14.74 536.30-14.11L536.30-14.11L536.30-14.11Q536.64-13.49 536.64-12.53L536.64-12.53L536.64-12.53Q536.64-10.22 535.25-9.79L535.25-9.79L535.25-9.79Q532.37-8.78 528.91-8.64L528.91-8.64L528.91-8.64Q528-4.61 525.31-2.18L525.31-2.18L525.31-2.18Q522.62 0.24 519.22 0.24L519.22 0.24L519.22 0.24Q516.34 0.24 514.30-1.15L514.30-1.15L514.30-1.15Q512.26-2.54 511.20-4.85L511.20-4.85L511.20-4.85Q510.14-7.15 510.14-9.84L510.14-9.84L510.14-9.84Q510.14-13.49 511.54-16.34L511.54-16.34L511.54-16.34Q512.93-19.20 515.38-20.81L515.38-20.81L515.38-20.81Q517.82-22.42 520.80-22.42L520.80-22.42L520.80-22.42Q524.45-22.42 526.68-19.90L526.68-19.90L526.68-19.90Q528.91-17.38 529.30-13.68L529.30-13.68L529.30-13.68Q531.55-13.82 534.67-14.64L534.67-14.64L534.67-14.64Q535.06-14.74 535.34-14.74L535.34-14.74ZM519.60-4.85L519.60-4.85Q521.14-4.85 522.26-6.10L522.26-6.10L522.26-6.10Q523.39-7.34 523.78-9.70L523.78-9.70L523.78-9.70Q522.29-10.70 521.50-12.34L521.50-12.34L521.50-12.34Q520.70-13.97 520.70-15.79L520.70-15.79L520.70-15.79Q520.70-16.56 520.85-17.33L520.85-17.33L520.61-17.33L520.61-17.33Q518.69-17.33 517.42-15.48L517.42-15.48L517.42-15.48Q516.14-13.63 516.14-10.27L516.14-10.27L516.14-10.27Q516.14-7.63 517.18-6.24L517.18-6.24L517.18-6.24Q518.21-4.85 519.60-4.85L519.60-4.85ZM551.66-13.44L551.66-13.44Q553.01-13.44 553.01-11.42L553.01-11.42L553.01-11.42Q553.01-7.63 547.06-7.63L547.06-7.63L547.06-7.63Q545.90-7.63 543.74-8.06L543.74-8.06L543.74-8.06Q544.37-5.09 544.78-1.46L544.78-1.46L544.78-1.46Q545.18 2.16 545.18 4.51L545.18 4.51L545.18 4.51Q545.18 9.70 543.50 12.43L543.50 12.43L543.50 12.43Q541.82 15.17 539.09 15.17L539.09 15.17L539.09 15.17Q535.63 15.17 534.17 10.27L534.17 10.27L534.17 10.27Q532.70 5.38 532.70-4.51L532.70-4.51L532.70-4.51Q532.70-13.73 534.70-23.21L534.70-23.21L534.70-23.21Q536.69-32.69 540.17-38.90L540.17-38.90L540.17-38.90Q543.65-45.12 547.82-45.12L547.82-45.12L547.82-45.12Q550.08-45.12 551.35-43.10L551.35-43.10L551.35-43.10Q552.62-41.09 552.62-37.68L552.62-37.68L552.62-37.68Q552.62-26.40 539.14-13.10L539.14-13.10L539.14-13.10Q538.66-8.40 538.66-4.85L538.66-4.85L538.66-4.85Q538.66 0.10 538.99 5.30L538.99 5.30L538.99 5.30Q539.33 10.51 540.10 10.51L540.10 10.51L540.10 10.51Q541.54 10.51 541.54 5.52L541.54 5.52L541.54 5.52Q541.54 1.78 541.03-1.73L541.03-1.73L541.03-1.73Q540.53-5.23 539.66-9.12L539.66-9.12L539.66-9.12Q539.62-9.74 540.07-10.70L540.07-10.70L540.07-10.70Q540.53-11.66 541.20-12.38L541.20-12.38L541.20-12.38Q541.87-13.10 542.40-13.10L542.40-13.10L542.40-13.10Q543.36-13.10 544.70-13.01L544.70-13.01L544.70-13.01Q545.14-12.96 545.71-12.96L545.71-12.96L545.71-12.96Q547.63-12.96 549.98-13.30L549.98-13.30L549.98-13.30Q550.37-13.34 550.80-13.39L550.80-13.39L550.80-13.39Q551.23-13.44 551.66-13.44L551.66-13.44ZM546.82-40.37L546.82-40.37Q545.95-40.37 544.68-37.44L544.68-37.44L544.68-37.44Q543.41-34.51 542.16-29.69L542.16-29.69L542.16-29.69Q540.91-24.86 540-19.49L540-19.49L540-19.49Q543.84-23.86 545.90-28.58L545.90-28.58L545.90-28.58Q547.97-33.31 548.02-37.44L548.02-37.44L548.02-37.44Q548.02-40.37 546.82-40.37L546.82-40.37ZM556.61-25.54L556.61-25.54Q554.59-25.54 553.58-26.47L553.58-26.47L553.58-26.47Q552.58-27.41 552.58-29.09L552.58-29.09L552.58-29.09Q552.58-30.77 553.90-31.90L553.90-31.90L553.90-31.90Q555.22-33.02 557.18-33.02L557.18-33.02L557.18-33.02Q558.96-33.02 560.06-32.16L560.06-32.16L560.06-32.16Q561.17-31.30 561.17-29.71L561.17-29.71L561.17-29.71Q561.17-27.79 559.92-26.66L559.92-26.66L559.92-26.66Q558.67-25.54 556.61-25.54L556.61-25.54ZM556.22 0.24L556.22 0.24Q553.10 0.24 551.69-1.97L551.69-1.97L551.69-1.97Q550.27-4.18 550.27-7.82L550.27-7.82L550.27-7.82Q550.27-9.98 550.82-13.37L550.82-13.37L550.82-13.37Q551.38-16.75 552.24-19.68L552.24-19.68L552.24-19.68Q552.67-21.22 553.39-21.79L553.39-21.79L553.39-21.79Q554.11-22.37 555.70-22.37L555.70-22.37L555.70-22.37Q558.14-22.37 558.14-20.74L558.14-20.74L558.14-20.74Q558.14-19.54 557.23-15.17L557.23-15.17L557.23-15.17Q556.08-9.89 556.08-8.02L556.08-8.02L556.08-8.02Q556.08-6.58 556.46-5.81L556.46-5.81L556.46-5.81Q556.85-5.04 557.76-5.04L557.76-5.04L557.76-5.04Q558.62-5.04 559.92-6.24L559.92-6.24L559.92-6.24Q561.22-7.44 563.38-10.03L563.38-10.03L563.38-10.03Q563.95-10.70 564.67-10.70L564.67-10.70L564.67-10.70Q565.30-10.70 565.66-10.13L565.66-10.13L565.66-10.13Q566.02-9.55 566.02-8.54L566.02-8.54L566.02-8.54Q566.02-6.62 565.10-5.57L565.10-5.57L565.10-5.57Q560.35 0.24 556.22 0.24L556.22 0.24ZM580.32-10.70L580.32-10.70Q580.94-10.70 581.30-10.13L581.30-10.13L581.30-10.13Q581.66-9.55 581.66-8.54L581.66-8.54L581.66-8.54Q581.66-6.62 580.75-5.57L580.75-5.57L580.75-5.57Q578.69-3.02 576.26-1.39L576.26-1.39L576.26-1.39Q573.84 0.24 570.77 0.24L570.77 0.24L570.77 0.24Q566.54 0.24 564.50-3.60L564.50-3.60L564.50-3.60Q562.46-7.44 562.46-13.54L562.46-13.54L562.46-13.54Q562.46-19.39 563.98-26.88L563.98-26.88L563.98-26.88Q565.49-34.37 568.44-39.74L568.44-39.74L568.44-39.74Q571.39-45.12 575.47-45.12L575.47-45.12L575.47-45.12Q577.78-45.12 579.10-42.98L579.10-42.98L579.10-42.98Q580.42-40.85 580.42-36.86L580.42-36.86L580.42-36.86Q580.42-31.15 577.25-23.62L577.25-23.62L577.25-23.62Q574.08-16.08 568.66-8.69L568.66-8.69L568.66-8.69Q568.99-6.72 569.76-5.88L569.76-5.88L569.76-5.88Q570.53-5.04 571.78-5.04L571.78-5.04L571.78-5.04Q573.74-5.04 575.23-6.17L575.23-6.17L575.23-6.17Q576.72-7.30 579.02-10.03L579.02-10.03L579.02-10.03Q579.60-10.70 580.32-10.70L580.32-10.70ZM574.42-40.37L574.42-40.37Q573.31-40.37 571.92-36.38L571.92-36.38L571.92-36.38Q570.53-32.40 569.47-26.50L569.47-26.50L569.47-26.50Q568.42-20.59 568.32-15.17L568.32-15.17L568.32-15.17Q571.73-20.78 573.74-26.42L573.74-26.42L573.74-26.42Q575.76-32.06 575.76-36.72L575.76-36.72L575.76-36.72Q575.76-40.37 574.42-40.37L574.42-40.37ZM599.18-10.70L599.18-10.70Q599.81-10.70 600.17-10.13L600.17-10.13L600.17-10.13Q600.53-9.55 600.53-8.54L600.53-8.54L600.53-8.54Q600.53-6.62 599.62-5.57L599.62-5.57L599.62-5.57Q597.84-3.41 594.60-1.58L594.60-1.58L594.60-1.58Q591.36 0.24 587.66 0.24L587.66 0.24L587.66 0.24Q582.62 0.24 579.84-2.50L579.84-2.50L579.84-2.50Q577.06-5.23 577.06-9.98L577.06-9.98L577.06-9.98Q577.06-13.30 578.45-16.15L578.45-16.15L578.45-16.15Q579.84-19.01 582.31-20.69L582.31-20.69L582.31-20.69Q584.78-22.37 587.90-22.37L587.90-22.37L587.90-22.37Q590.69-22.37 592.37-20.71L592.37-20.71L592.37-20.71Q594.05-19.06 594.05-16.22L594.05-16.22L594.05-16.22Q594.05-12.91 591.67-10.54L591.67-10.54L591.67-10.54Q589.30-8.16 583.63-6.77L583.63-6.77L583.63-6.77Q584.83-4.56 588.19-4.56L588.19-4.56L588.19-4.56Q590.35-4.56 593.11-6.07L593.11-6.07L593.11-6.07Q595.87-7.58 597.89-10.03L597.89-10.03L597.89-10.03Q598.46-10.70 599.18-10.70L599.18-10.70ZM587.09-17.66L587.09-17.66Q585.31-17.66 584.09-15.60L584.09-15.60L584.09-15.60Q582.86-13.54 582.86-10.61L582.86-10.61L582.86-10.51L582.86-10.51Q585.70-11.18 587.33-12.53L587.33-12.53L587.33-12.53Q588.96-13.87 588.96-15.65L588.96-15.65L588.96-15.65Q588.96-16.56 588.46-17.11L588.46-17.11L588.46-17.11Q587.95-17.66 587.09-17.66L587.09-17.66ZM602.02-11.23L602.02-11.23Q601.06-11.23 600.43-11.66L600.43-11.66L600.43-11.66Q599.81-12.10 599.81-13.01L599.81-13.01L599.86-13.39L599.86-13.39Q600.67-18.77 602.06-25.63L602.06-25.63L602.06-25.63Q603.46-32.50 604.66-37.49L604.66-37.49L604.66-37.49Q605.42-40.56 608.83-40.56L608.83-40.56L608.83-40.56Q611.90-40.56 611.90-38.59L611.90-38.59L611.90-38.59Q611.90-38.16 611.76-37.63L611.76-37.63L611.76-37.63Q610.51-32.54 608.45-25.32L608.45-25.32L608.45-25.32Q606.38-18.10 604.51-12.77L604.51-12.77L604.51-12.77Q603.98-11.23 602.02-11.23L602.02-11.23ZM600.19 0.24L600.19 0.24Q598.08 0.24 597-0.91L597-0.91L597-0.91Q595.92-2.06 595.92-3.94L595.92-3.94L595.92-3.94Q595.92-6.10 597.14-7.39L597.14-7.39L597.14-7.39Q598.37-8.69 600.58-8.69L600.58-8.69L600.58-8.69Q602.69-8.69 603.77-7.66L603.77-7.66L603.77-7.66Q604.85-6.62 604.85-4.61L604.85-4.61L604.85-4.61Q604.85-2.40 603.60-1.08L603.60-1.08L603.60-1.08Q602.35 0.24 600.19 0.24L600.19 0.24Z" fill="url(#editing-glowing-gradient)"></path></g></g><style>text {
  font-size: 64px;
  font-family: Arial Black;
  dominant-baseline: central;
  text-anchor: middle;
}</style></svg>