<svg width="990.751" height="164.703" viewBox="0 0 990.751 164.703" xmlns="http://www.w3.org/2000/svg">
	<g id="svgGroup" stroke-linecap="round" fill-rule="evenodd" font-size="9pt" stroke="#000" stroke-width="0.25mm" fill="none" style="stroke:#000;stroke-width:0.25mm;fill:none">
		<path d="M 33.3 93.153 L 26.1 93.453 A 22.513 22.513 0 0 1 23.562 93.32 Q 20.928 93.02 19.355 92.042 A 5.662 5.662 0 0 1 18.9 91.728 A 5.349 5.349 0 0 1 17.081 89.099 Q 16.65 87.809 16.65 86.103 A 13.634 13.634 0 0 1 16.901 83.395 Q 17.227 81.791 17.973 80.576 A 6.899 6.899 0 0 1 19.5 78.828 Q 22.086 76.718 27.759 76.276 A 36.833 36.833 0 0 1 28.95 76.203 L 36.9 75.903 Q 40.1 58.548 40.675 47.96 A 79.869 79.869 0 0 0 40.8 43.653 Q 40.8 36.603 38.7 34.053 A 6.742 6.742 0 0 0 33.785 31.525 A 8.85 8.85 0 0 0 33.15 31.503 Q 24.557 31.503 14.155 43.258 A 94.165 94.165 0 0 0 9.45 49.053 A 8.516 8.516 0 0 1 8.253 50.342 Q 7.452 51.032 6.584 51.344 A 4.347 4.347 0 0 1 5.1 51.603 A 4.15 4.15 0 0 1 2.185 50.413 A 6.25 6.25 0 0 1 1.5 49.653 A 7.055 7.055 0 0 1 0.198 46.744 A 10.011 10.011 0 0 1 0 44.703 Q 0 40.834 2.595 36.551 A 27.758 27.758 0 0 1 3.75 34.803 Q 10.35 25.653 20.4 19.728 A 43.962 43.962 0 0 1 31.003 15.148 A 36.589 36.589 0 0 1 40.8 13.803 A 22.753 22.753 0 0 1 47.236 14.665 A 16.904 16.904 0 0 1 55.875 20.478 A 20.544 20.544 0 0 1 59.12 26.528 Q 61.07 32.069 61.192 40.158 A 72.387 72.387 0 0 1 61.2 41.253 A 118.139 118.139 0 0 1 60.849 49.898 Q 60.184 58.888 58.263 70.967 A 422.214 422.214 0 0 1 57.6 75.003 L 72.3 74.253 Q 79.535 73.908 85.188 73.212 A 105.428 105.428 0 0 0 88.5 72.753 A 159.686 159.686 0 0 1 94.458 48.253 A 142.431 142.431 0 0 1 96.75 41.853 A 89.989 89.989 0 0 1 102.123 30.286 Q 105.436 24.362 109.403 19.745 A 53.881 53.881 0 0 1 110.55 18.453 Q 118.8 9.453 129 9.453 A 15.23 15.23 0 0 1 134.768 10.507 Q 138.335 11.952 140.85 15.378 A 21.242 21.242 0 0 1 144.244 22.71 Q 145.017 25.696 145.165 29.21 A 40.254 40.254 0 0 1 145.2 30.903 A 55.573 55.573 0 0 1 140.536 54.184 Q 131.895 73.151 107.25 82.503 A 164.392 164.392 0 0 0 106.807 93.347 A 182.498 182.498 0 0 0 106.8 94.953 Q 106.8 107.311 109.201 114.036 A 18.932 18.932 0 0 0 110.7 117.303 A 15.165 15.165 0 0 0 113.676 120.992 A 11.621 11.621 0 0 0 121.65 123.903 Q 127.8 123.903 132.9 120.678 Q 138 117.453 144.45 109.653 A 7.146 7.146 0 0 1 145.71 108.479 A 4.706 4.706 0 0 1 148.5 107.553 A 3.338 3.338 0 0 1 151.124 108.741 A 4.747 4.747 0 0 1 151.575 109.353 A 6.564 6.564 0 0 1 152.314 111.075 Q 152.543 111.896 152.636 112.88 A 15.12 15.12 0 0 1 152.7 114.303 A 19.456 19.456 0 0 1 152.348 118.119 Q 151.698 121.366 149.85 123.603 Q 135 141.753 118.2 141.753 A 30.303 30.303 0 0 1 106.589 139.599 Q 99.897 136.853 95.027 130.601 A 35.036 35.036 0 0 1 94.95 130.503 A 37.248 37.248 0 0 1 89.012 118.823 Q 87.372 113.635 86.706 107.356 A 86.383 86.383 0 0 1 86.25 98.253 Q 86.25 93.153 86.7 88.053 Q 76.8 89.853 65.1 90.753 A 1403.677 1403.677 0 0 1 61.716 91.009 Q 56.632 91.388 54.45 91.503 Q 52.388 102.022 49.191 115.802 A 1276.841 1276.841 0 0 1 46.05 129.003 Q 44.592 135.043 41.913 138.288 A 9.767 9.767 0 0 1 34.05 142.053 A 15.437 15.437 0 0 1 30.427 141.666 Q 24.45 140.218 24.45 133.353 Q 24.45 131.668 25.01 128.862 A 54.709 54.709 0 0 1 25.2 127.953 A 1435.183 1435.183 0 0 0 28.73 113.426 Q 30.078 107.743 31.22 102.674 A 687.112 687.112 0 0 0 33.3 93.153 Z M 128.25 22.503 A 4.473 4.473 0 0 0 125.937 23.212 Q 124.308 24.192 122.594 26.527 A 28.492 28.492 0 0 0 121.275 28.503 Q 117.6 34.503 114.3 44.853 A 142.599 142.599 0 0 0 110.703 58.552 A 175.174 175.174 0 0 0 109.05 67.503 Q 121.05 62.553 126.75 53.403 Q 131.727 45.414 132.358 33.424 A 67.892 67.892 0 0 0 132.45 29.853 A 16.141 16.141 0 0 0 132.333 27.843 Q 132.204 26.818 131.933 25.971 A 6.875 6.875 0 0 0 131.25 24.453 A 5.337 5.337 0 0 0 130.506 23.488 Q 129.927 22.903 129.24 22.665 A 3.004 3.004 0 0 0 128.25 22.503 Z" id="0" vector-effect="non-scaling-stroke"/>
		<path d="M 153.426 141.079 A 21.608 21.608 0 0 0 159 141.753 A 19.526 19.526 0 0 0 163.474 141.221 Q 171.147 139.419 179.475 131.517 A 85.823 85.823 0 0 0 186.75 123.603 A 10.124 10.124 0 0 0 188.105 121.579 Q 188.923 119.976 189.293 117.95 A 20.299 20.299 0 0 0 189.6 114.303 A 15.12 15.12 0 0 0 189.536 112.88 Q 189.443 111.896 189.214 111.075 A 6.564 6.564 0 0 0 188.475 109.353 A 4.747 4.747 0 0 0 188.024 108.741 A 3.338 3.338 0 0 0 185.4 107.553 A 4.706 4.706 0 0 0 182.61 108.479 A 7.146 7.146 0 0 0 181.35 109.653 A 276.287 276.287 0 0 1 179.153 112.258 Q 173.918 118.384 170.55 121.503 A 28.092 28.092 0 0 1 169.211 122.671 Q 166.041 125.253 163.8 125.253 Q 162.063 125.253 160.939 124.362 A 4.396 4.396 0 0 1 159.75 122.853 A 7.463 7.463 0 0 1 159.62 122.579 Q 158.887 120.95 158.656 118.44 A 27.263 27.263 0 0 1 158.55 115.953 Q 158.55 110.103 162.15 93.603 Q 164.388 82.885 164.869 78.271 A 20.747 20.747 0 0 0 165 76.203 A 6.439 6.439 0 0 0 164.99 75.833 Q 164.718 71.103 157.35 71.103 Q 154.179 71.103 152.116 71.841 A 6.774 6.774 0 0 0 150.15 72.903 A 6.07 6.07 0 0 0 149.738 73.265 Q 148.383 74.566 147.381 77.04 A 23.552 23.552 0 0 0 146.55 79.503 Q 143.85 88.653 142.125 99.228 A 174.257 174.257 0 0 0 141.179 105.756 Q 140.4 112.018 140.4 116.553 A 53.099 53.099 0 0 0 140.529 120.311 Q 140.807 124.229 141.686 127.536 A 25.672 25.672 0 0 0 144.825 134.853 A 14.205 14.205 0 0 0 153.426 141.079 Z M 150.75 58.278 A 9.448 9.448 0 0 0 153.401 59.994 Q 156.15 61.203 160.2 61.203 A 19.401 19.401 0 0 0 164.377 60.777 A 13.277 13.277 0 0 0 170.55 57.678 A 11.333 11.333 0 0 0 173.879 52.384 A 14.882 14.882 0 0 0 174.45 48.153 A 12.813 12.813 0 0 0 174.366 46.661 A 8.787 8.787 0 0 0 171 40.503 Q 168.837 38.81 165.849 38.179 A 18.611 18.611 0 0 0 162 37.803 A 19.489 19.489 0 0 0 159.574 37.95 A 14.587 14.587 0 0 0 151.725 41.328 Q 147.6 44.853 147.6 50.103 A 14.355 14.355 0 0 0 147.908 53.157 A 9.572 9.572 0 0 0 150.75 58.278 Z" id="1" vector-effect="non-scaling-stroke"/>
		<path d="M 198.741 164.526 A 11.801 11.801 0 0 0 200.85 164.703 A 8.043 8.043 0 0 0 201.962 164.629 A 5.747 5.747 0 0 0 205.425 162.903 A 7.995 7.995 0 0 0 205.546 162.774 Q 206.826 161.378 208.772 158.021 A 95.124 95.124 0 0 0 210.15 155.553 Q 214.65 147.303 217.8 138.603 A 89.468 89.468 0 0 0 218.38 136.953 Q 220.061 132.01 220.643 128.271 A 23.694 23.694 0 0 0 220.95 124.653 A 14.449 14.449 0 0 0 220.622 121.489 A 9.814 9.814 0 0 0 218.175 116.778 A 8.298 8.298 0 0 0 216.411 115.366 Q 214.982 114.51 213.119 114.138 A 15.947 15.947 0 0 0 210 113.853 A 14.65 14.65 0 0 0 209.23 113.873 A 11.376 11.376 0 0 0 200.925 117.903 A 12.374 12.374 0 0 0 199.14 120.616 Q 198.194 122.557 197.762 125.002 A 25.635 25.635 0 0 0 197.4 129.453 A 108.927 108.927 0 0 1 197.194 136.315 A 80.938 80.938 0 0 1 196.575 142.503 A 120.255 120.255 0 0 1 195.544 148.615 A 158.234 158.234 0 0 1 194.1 155.253 A 19.038 19.038 0 0 0 193.922 156.032 Q 193.792 156.663 193.724 157.232 A 9.916 9.916 0 0 0 193.65 158.403 Q 193.65 159.743 193.972 160.787 A 4.702 4.702 0 0 0 195.6 163.203 A 6.243 6.243 0 0 0 196.572 163.815 Q 197.534 164.306 198.741 164.526 Z" id="2" vector-effect="non-scaling-stroke"/>
		<path d="M 322.2 67.803 L 319.05 87.453 Q 315.75 109.503 313.8 124.353 Q 316.95 124.203 322.35 124.203 A 47.247 47.247 0 0 1 325.902 124.326 Q 330.99 124.711 333.15 126.303 A 6.795 6.795 0 0 1 335.844 130.749 A 10.452 10.452 0 0 1 336 132.603 A 8.366 8.366 0 0 1 333.342 138.817 A 10.999 10.999 0 0 1 332.925 139.203 A 10.136 10.136 0 0 1 329.096 141.269 Q 326.988 141.903 324.3 141.903 A 140.182 140.182 0 0 1 322.153 141.884 Q 318.706 141.831 313.049 141.625 A 919.364 919.364 0 0 1 312.45 141.603 A 929.901 929.901 0 0 0 309.413 141.486 Q 305.594 141.346 303.6 141.313 A 65.03 65.03 0 0 0 302.55 141.303 A 125.865 125.865 0 0 0 292.002 141.768 A 166.145 166.145 0 0 0 281.85 142.953 Q 276.9 143.703 274.8 143.703 A 10.024 10.024 0 0 1 272.114 143.358 A 7.919 7.919 0 0 1 269.25 141.903 Q 267 140.103 267 136.653 Q 267 131.253 271.8 128.253 Q 276.6 125.253 285.3 125.103 L 292.35 124.953 L 292.8 121.653 A 5735.601 5735.601 0 0 1 294.478 110.534 Q 296.813 95.178 298.05 87.753 L 301.35 68.103 Q 304.35 50.703 306.75 32.253 L 294.15 32.403 A 26.532 26.532 0 0 1 291.661 32.295 Q 289.225 32.064 287.754 31.341 A 4.938 4.938 0 0 1 286.725 30.678 A 5.617 5.617 0 0 1 284.827 27.289 A 8.331 8.331 0 0 1 284.7 25.803 A 9.889 9.889 0 0 1 286.245 20.182 Q 289.466 15.36 299.4 14.853 A 279.911 279.911 0 0 1 304.997 14.67 Q 307.505 14.611 310.306 14.582 A 564.59 564.59 0 0 1 316.2 14.553 L 343.65 14.703 A 13.472 13.472 0 0 1 346.807 15.055 A 10.128 10.128 0 0 1 350.25 16.578 A 7.681 7.681 0 0 1 351.674 17.83 A 4.924 4.924 0 0 1 352.95 21.153 A 12.473 12.473 0 0 1 352.492 24.617 A 9.537 9.537 0 0 1 349.95 28.878 A 9.739 9.739 0 0 1 345.768 31.243 Q 344.253 31.68 342.439 31.776 A 19.723 19.723 0 0 1 341.4 31.803 Q 334.739 31.803 330.54 31.891 A 190.412 190.412 0 0 0 328.2 31.953 L 325.5 48.153 A 76309.698 76309.698 0 0 0 324.562 53.734 Q 322.836 63.996 322.286 67.289 A 1477.452 1477.452 0 0 0 322.2 67.803 Z" id="4" vector-effect="non-scaling-stroke"/>
		<path d="M 360.9 56.853 L 363.9 28.203 Q 365.4 14.403 376.95 14.403 Q 386.85 14.403 386.85 23.703 Q 386.85 25.611 386.231 28.634 A 52.74 52.74 0 0 1 386.1 29.253 L 380.1 56.853 A 15.461 15.461 0 0 1 379.214 59.674 Q 378.539 61.239 377.55 62.357 A 7.894 7.894 0 0 1 376.05 63.678 A 11.875 11.875 0 0 1 369.874 65.685 A 14.555 14.555 0 0 1 369.15 65.703 A 11.437 11.437 0 0 1 366.263 65.356 A 8.636 8.636 0 0 1 362.925 63.678 Q 360.593 61.77 360.858 57.397 A 16.589 16.589 0 0 1 360.9 56.853 Z" id="5" vector-effect="non-scaling-stroke"/>
		<path d="M 401.289 140.878 A 8.256 8.256 0 0 0 405.15 141.753 Q 407.403 141.753 409.074 141.172 A 6.699 6.699 0 0 0 411.975 139.278 A 8.801 8.801 0 0 0 412.951 137.892 Q 414.017 136.059 414.942 132.992 A 53.431 53.431 0 0 0 415.8 129.753 A 121.133 121.133 0 0 1 416.576 126.705 A 135.683 135.683 0 0 1 420.975 113.253 A 113.081 113.081 0 0 1 422.499 109.48 Q 423.78 106.473 425.094 103.925 A 55.98 55.98 0 0 1 427.65 99.453 A 39.203 39.203 0 0 1 428.199 98.617 Q 430.345 95.439 432 94.474 A 2.705 2.705 0 0 1 433.35 94.053 Q 434.678 94.053 434.937 95.607 A 5.168 5.168 0 0 1 435 96.453 A 23.169 23.169 0 0 1 434.976 97.446 Q 434.829 100.826 433.8 109.053 Q 432.722 116.815 432.419 121.943 A 61.732 61.732 0 0 0 432.3 125.553 A 35.863 35.863 0 0 0 432.309 126.337 Q 432.368 129.057 432.844 131.436 A 20.756 20.756 0 0 0 434.775 137.028 A 11.523 11.523 0 0 0 435.537 138.287 Q 436.756 140.03 438.434 140.896 A 8.09 8.09 0 0 0 442.2 141.753 A 16.119 16.119 0 0 0 444.123 141.644 Q 445.441 141.486 446.506 141.095 A 6.586 6.586 0 0 0 449.175 139.353 A 8.457 8.457 0 0 0 450.241 137.834 Q 451.26 136.03 452.149 133.029 A 54.236 54.236 0 0 0 453 129.753 Q 455.25 120.603 458.85 112.353 A 110.586 110.586 0 0 1 460.678 108.371 Q 462.014 105.614 463.35 103.3 A 51.358 51.358 0 0 1 466.05 99.078 A 40.914 40.914 0 0 1 466.96 97.854 Q 469.031 95.18 470.485 94.387 A 2.368 2.368 0 0 1 471.6 94.053 Q 472.928 94.053 473.187 95.607 A 5.168 5.168 0 0 1 473.25 96.453 Q 473.25 100.053 471.3 109.503 Q 469.2 120.303 469.2 124.503 A 31.758 31.758 0 0 0 469.332 127.46 Q 469.918 133.717 473.1 137.328 A 11.8 11.8 0 0 0 475.127 139.154 Q 478.788 141.753 484.65 141.753 Q 494.1 141.753 501.525 136.653 A 59.474 59.474 0 0 0 507.397 132.039 A 71.941 71.941 0 0 0 515.4 123.603 A 10.124 10.124 0 0 0 516.755 121.579 Q 517.573 119.976 517.943 117.95 A 20.299 20.299 0 0 0 518.25 114.303 A 15.12 15.12 0 0 0 518.186 112.88 Q 518.093 111.896 517.864 111.075 A 6.564 6.564 0 0 0 517.125 109.353 A 4.747 4.747 0 0 0 516.674 108.741 A 3.338 3.338 0 0 0 514.05 107.553 A 4.706 4.706 0 0 0 511.26 108.479 A 7.146 7.146 0 0 0 510 109.653 Q 503.1 117.903 498.975 121.578 Q 496.268 123.989 494.046 124.819 A 6.293 6.293 0 0 1 491.85 125.253 A 6.1 6.1 0 0 1 491.657 125.25 Q 488.347 125.145 487.673 121.405 A 12.19 12.19 0 0 1 487.5 119.253 A 18.689 18.689 0 0 1 487.556 117.901 Q 487.9 113.223 490.35 102.003 A 370.129 370.129 0 0 0 490.816 99.812 Q 492.91 89.812 493.457 84.241 A 35.396 35.396 0 0 0 493.65 80.853 A 14.365 14.365 0 0 0 493.234 77.242 Q 492.085 72.825 487.759 71.586 A 14.036 14.036 0 0 0 483.9 71.103 Q 478.248 71.103 471.99 75.348 A 45.523 45.523 0 0 0 466.8 79.503 Q 457.65 87.903 450.15 106.353 Q 450.6 103.653 451.8 98.253 Q 453.96 88.704 454.483 83.635 A 27.687 27.687 0 0 0 454.65 80.853 A 18.554 18.554 0 0 0 454.515 78.541 Q 454.341 77.158 453.943 76.036 A 7.409 7.409 0 0 0 452.475 73.503 A 5.422 5.422 0 0 0 452.323 73.342 Q 450.727 71.719 447.622 71.272 A 18.126 18.126 0 0 0 445.05 71.103 A 14.748 14.748 0 0 0 442.425 71.344 Q 438.342 72.081 433.875 75.078 Q 430.172 77.562 426.586 81.658 A 62.166 62.166 0 0 0 422.325 87.153 Q 419.161 91.709 416.495 97.404 A 98.652 98.652 0 0 0 412.65 106.953 A 151.664 151.664 0 0 1 413.054 103.04 Q 413.271 101.19 413.517 99.552 A 71.785 71.785 0 0 1 414.15 95.928 A 175.897 175.897 0 0 1 414.771 93.008 Q 415.519 89.628 416.55 85.503 Q 418.308 78.94 418.693 76.039 A 10.556 10.556 0 0 0 418.8 74.703 Q 418.8 72.603 417.6 71.853 A 3.319 3.319 0 0 0 416.975 71.556 Q 415.731 71.103 413.4 71.103 A 25.529 25.529 0 0 0 410.684 71.239 Q 407.051 71.629 404.775 73.128 A 9.98 9.98 0 0 0 401.605 76.567 A 14.525 14.525 0 0 0 400.35 79.503 Q 394.8 97.053 394.8 116.553 Q 394.8 129.753 397.125 135.753 Q 398.562 139.462 401.289 140.878 Z" id="6" vector-effect="non-scaling-stroke"/>
		<path d="M 591.378 140.413 A 82.434 82.434 0 0 0 606.6 141.753 A 104.909 104.909 0 0 0 614.521 141.447 A 125.657 125.657 0 0 0 628.425 139.578 Q 639.9 137.403 650.55 132.753 A 21.616 21.616 0 0 0 655.139 130.081 A 13.061 13.061 0 0 0 660.45 119.253 A 12.769 12.769 0 0 0 660.437 118.659 Q 660.323 116.212 659.25 114.603 A 3.823 3.823 0 0 0 657.158 113.015 A 5.057 5.057 0 0 0 655.65 112.803 A 5.084 5.084 0 0 0 655.581 112.803 Q 654.573 112.817 653.233 113.228 A 17.178 17.178 0 0 0 651.9 113.703 A 210.097 210.097 0 0 1 648.711 115.011 Q 643.985 116.904 639.605 118.381 A 125.506 125.506 0 0 1 629.775 121.278 Q 619.8 123.753 610.05 123.753 A 70.047 70.047 0 0 1 604.093 123.509 Q 588.816 122.204 580.35 113.928 A 30.196 30.196 0 0 1 577.032 110.09 Q 573.063 104.634 571.434 97.274 A 51.693 51.693 0 0 1 570.3 86.103 A 105.605 105.605 0 0 1 570.308 84.825 Q 570.507 68.386 575.85 56.328 A 66.434 66.434 0 0 1 576.003 55.986 Q 581.523 43.715 590.4 37.353 A 39.388 39.388 0 0 1 593.95 35.079 A 30.764 30.764 0 0 1 609.3 30.903 Q 620.554 30.903 623.103 39.068 A 18.407 18.407 0 0 1 623.85 44.553 A 17.405 17.405 0 0 1 623.845 44.954 Q 623.785 47.579 622.95 51.753 Q 622.491 54.509 622.383 55.946 A 10.337 10.337 0 0 0 622.35 56.703 A 9.651 9.651 0 0 0 622.54 58.67 A 6.298 6.298 0 0 0 624.75 62.403 Q 627.15 64.353 631.35 64.353 A 12.883 12.883 0 0 0 631.474 64.352 Q 637.383 64.296 640.575 58.803 A 20.021 20.021 0 0 0 642.114 55.454 Q 642.999 52.97 643.419 49.968 A 42.353 42.353 0 0 0 643.8 44.103 A 39.168 39.168 0 0 0 643.384 38.288 A 27.923 27.923 0 0 0 635.4 22.128 Q 627 13.803 610.8 13.803 Q 593.4 13.803 579.15 23.178 A 60.063 60.063 0 0 0 567.093 33.664 A 70.849 70.849 0 0 0 556.575 49.653 A 79.481 79.481 0 0 0 550.331 67.99 A 99.914 99.914 0 0 0 548.25 88.803 A 65.011 65.011 0 0 0 548.808 97.438 A 50.96 50.96 0 0 0 555.3 116.703 A 46.049 46.049 0 0 0 560.589 123.988 A 48.491 48.491 0 0 0 575.55 135.228 A 60.898 60.898 0 0 0 591.378 140.413 Z" id="8" vector-effect="non-scaling-stroke"/>
		<path d="M 660.142 140.596 A 20.666 20.666 0 0 0 667.2 141.753 A 20.283 20.283 0 0 0 681.871 135.515 A 33.977 33.977 0 0 0 686.85 129.153 A 25.007 25.007 0 0 0 688.382 132.607 A 19.074 19.074 0 0 0 693.075 138.378 A 17.55 17.55 0 0 0 693.725 138.885 A 13.831 13.831 0 0 0 702.15 141.753 Q 706.383 141.753 710.81 139.492 A 31.3 31.3 0 0 0 715.5 136.503 Q 722.4 131.253 728.55 123.603 A 10.124 10.124 0 0 0 729.905 121.579 Q 730.723 119.976 731.093 117.95 A 20.299 20.299 0 0 0 731.4 114.303 A 15.12 15.12 0 0 0 731.336 112.88 Q 731.243 111.896 731.014 111.075 A 6.564 6.564 0 0 0 730.275 109.353 A 4.747 4.747 0 0 0 729.824 108.741 A 3.338 3.338 0 0 0 727.2 107.553 A 4.706 4.706 0 0 0 724.41 108.479 A 7.146 7.146 0 0 0 723.15 109.653 A 271.642 271.642 0 0 1 720.906 112.302 Q 717.374 116.418 714.704 119.149 A 59.021 59.021 0 0 1 712.2 121.578 Q 708.15 125.253 705.3 125.253 A 4.561 4.561 0 0 1 704.969 125.241 A 3.59 3.59 0 0 1 702.375 123.903 Q 701.25 122.553 701.25 120.303 Q 701.25 115.188 703.231 104.042 A 368.852 368.852 0 0 1 704.7 96.303 A 460.448 460.448 0 0 0 704.98 94.816 Q 706.95 84.25 706.95 81.303 A 7.275 7.275 0 0 0 706.947 81.091 Q 706.83 77.057 702.191 76.253 A 15.244 15.244 0 0 0 699.6 76.053 A 38.962 38.962 0 0 0 698.636 76.065 A 34.668 34.668 0 0 0 693 76.653 Q 692.473 74.332 691.76 73.013 A 5.01 5.01 0 0 0 691.125 72.078 A 2.651 2.651 0 0 0 690.553 71.596 Q 689.687 71.046 688.171 70.878 A 13.348 13.348 0 0 0 686.7 70.803 A 31.623 31.623 0 0 0 677.398 72.189 A 36.022 36.022 0 0 0 667.125 77.328 A 45.402 45.402 0 0 0 662.227 81.33 A 48.767 48.767 0 0 0 652.35 94.578 Q 646.8 105.303 646.8 117.303 A 42.598 42.598 0 0 0 646.804 117.84 Q 646.937 128.419 652.35 135.003 A 17.79 17.79 0 0 0 660.142 140.596 Z M 683.25 112.353 L 688.8 84.753 A 17.561 17.561 0 0 0 679.034 88.036 A 22.898 22.898 0 0 0 677.175 89.478 A 29.563 29.563 0 0 0 671.002 96.946 A 37.894 37.894 0 0 0 668.7 101.553 Q 665.55 109.053 665.55 117.453 Q 665.55 122.103 667.425 124.353 A 6.129 6.129 0 0 0 671.604 126.548 A 8.778 8.778 0 0 0 672.6 126.603 A 6.037 6.037 0 0 0 675.776 125.658 Q 677.377 124.683 678.9 122.703 Q 681.501 119.321 682.862 114.023 A 38.066 38.066 0 0 0 683.25 112.353 Z" id="9" vector-effect="non-scaling-stroke"/>
		<path d="M 726.039 140.878 A 8.256 8.256 0 0 0 729.9 141.753 Q 732.153 141.753 733.824 141.172 A 6.699 6.699 0 0 0 736.725 139.278 A 8.801 8.801 0 0 0 737.701 137.892 Q 738.767 136.059 739.692 132.992 A 53.431 53.431 0 0 0 740.55 129.753 Q 742.8 120.603 746.4 112.353 A 105.138 105.138 0 0 1 748.233 108.371 Q 749.576 105.614 750.929 103.3 A 49.492 49.492 0 0 1 753.675 99.078 Q 757.35 94.053 759.6 94.053 Q 760.928 94.053 761.187 95.607 A 5.168 5.168 0 0 1 761.25 96.453 A 10.436 10.436 0 0 1 761.245 96.771 Q 761.219 97.599 761.074 99.204 A 136.781 136.781 0 0 1 760.95 100.503 Q 760.5 102.753 760.5 105.003 A 19.545 19.545 0 0 0 760.828 108.665 A 13.473 13.473 0 0 0 764.625 115.953 Q 768.75 120.003 776.7 120.003 Q 783 120.003 788.625 116.928 A 45.34 45.34 0 0 0 789.062 116.686 A 40.484 40.484 0 0 0 798.45 109.503 Q 801.45 106.353 801.45 100.803 A 13.085 13.085 0 0 0 801.419 99.884 Q 801.263 97.665 800.325 96.228 Q 799.2 94.503 797.25 94.503 Q 795.839 94.503 794.496 95.383 A 8.21 8.21 0 0 0 793.2 96.453 A 46.932 46.932 0 0 1 790.52 98.946 Q 787.522 101.507 785.105 102.471 A 7.343 7.343 0 0 1 782.4 103.053 Q 779.383 103.053 778.793 99.653 A 10.889 10.889 0 0 1 778.65 97.803 Q 778.65 96.584 779.442 92.395 A 203.65 203.65 0 0 1 779.85 90.303 A 312.48 312.48 0 0 0 780.018 89.362 Q 781.2 82.677 781.2 80.853 A 14.365 14.365 0 0 0 780.784 77.242 Q 779.635 72.825 775.309 71.586 A 14.036 14.036 0 0 0 771.45 71.103 A 15.506 15.506 0 0 0 768.848 71.329 Q 766.769 71.683 764.533 72.589 A 31.103 31.103 0 0 0 760.575 74.553 A 28.47 28.47 0 0 0 757.093 76.966 Q 754.912 78.717 752.702 81.083 A 64.438 64.438 0 0 0 748.5 86.103 A 58.927 58.927 0 0 0 746.028 89.627 Q 743.549 93.442 741.281 98.103 A 113.714 113.714 0 0 0 737.4 107.103 A 154.634 154.634 0 0 1 737.804 103.183 Q 738.021 101.325 738.267 99.673 A 75.497 75.497 0 0 1 738.9 96.003 A 167.606 167.606 0 0 1 739.521 93.044 Q 739.861 91.491 740.26 89.792 A 301.709 301.709 0 0 1 741.3 85.503 Q 743.058 78.94 743.443 76.039 A 10.556 10.556 0 0 0 743.55 74.703 Q 743.55 72.603 742.35 71.853 A 3.319 3.319 0 0 0 741.725 71.556 Q 740.481 71.103 738.15 71.103 A 25.529 25.529 0 0 0 735.434 71.239 Q 731.801 71.629 729.525 73.128 A 9.98 9.98 0 0 0 726.355 76.567 A 14.525 14.525 0 0 0 725.1 79.503 Q 719.55 97.053 719.55 116.553 Q 719.55 129.753 721.875 135.753 Q 723.312 139.462 726.039 140.878 Z" id="10" vector-effect="non-scaling-stroke"/>
		<path d="M 846.974 108.741 A 3.338 3.338 0 0 0 844.35 107.553 A 4.706 4.706 0 0 0 841.56 108.479 A 7.146 7.146 0 0 0 840.3 109.653 A 171.112 171.112 0 0 1 837.947 112.391 Q 834.221 116.63 831.268 119.347 A 39.114 39.114 0 0 1 828.45 121.728 A 17.148 17.148 0 0 1 824.588 123.944 A 18.104 18.104 0 0 1 817.65 125.253 Q 813.75 125.253 811.35 122.628 Q 809.625 120.741 808.598 117.033 A 32.291 32.291 0 0 1 807.9 113.853 A 259.567 259.567 0 0 0 817.805 99.371 A 217.205 217.205 0 0 0 834.75 67.203 A 167.361 167.361 0 0 0 838.668 56.998 Q 841.524 48.73 843.016 41.247 A 79.123 79.123 0 0 0 844.65 25.803 A 74.858 74.858 0 0 0 844.65 25.681 Q 844.638 17.978 843.039 12.496 A 23.572 23.572 0 0 0 840.525 6.678 A 17.491 17.491 0 0 0 838.87 4.409 A 12.245 12.245 0 0 0 829.2 0.003 A 18.883 18.883 0 0 0 818.274 3.518 Q 815.015 5.766 812.058 9.453 A 50.845 50.845 0 0 0 807.225 16.803 A 104.159 104.159 0 0 0 806.613 17.934 Q 802.06 26.473 798.64 36.674 A 169.521 169.521 0 0 0 793.275 57.003 A 298.497 298.497 0 0 0 792.04 63.483 Q 790.327 73.052 789.455 81.714 A 169.963 169.963 0 0 0 788.55 98.703 A 102.234 102.234 0 0 0 788.789 105.806 Q 789.783 120.073 794.925 129.753 Q 801.3 141.753 814.5 141.753 A 35.852 35.852 0 0 0 814.538 141.753 A 30.036 30.036 0 0 0 831.675 136.653 A 58.394 58.394 0 0 0 837.198 132.427 A 69.054 69.054 0 0 0 845.7 123.603 A 10.124 10.124 0 0 0 847.055 121.579 Q 847.873 119.976 848.243 117.95 A 20.299 20.299 0 0 0 848.55 114.303 A 15.12 15.12 0 0 0 848.486 112.88 Q 848.393 111.896 848.164 111.075 A 6.564 6.564 0 0 0 847.425 109.353 A 4.747 4.747 0 0 0 846.974 108.741 Z M 825.9 14.853 A 2.851 2.851 0 0 0 824.061 15.68 Q 821.987 17.488 819.627 23.248 A 82.629 82.629 0 0 0 818.1 27.303 A 145.929 145.929 0 0 0 814.985 37.484 Q 813.445 43.208 812.063 49.842 A 301.185 301.185 0 0 0 810.45 58.203 A 234.514 234.514 0 0 0 807.331 82.863 A 202.002 202.002 0 0 0 806.85 93.603 A 200.59 200.59 0 0 0 820.146 67.786 A 175.349 175.349 0 0 0 823.8 58.428 Q 830.1 40.803 830.1 26.253 A 47.263 47.263 0 0 0 829.976 22.671 Q 829.378 14.853 825.9 14.853 Z" id="11" vector-effect="non-scaling-stroke"/>
		<path d="M 915.388 96.131 A 3.082 3.082 0 0 0 912.9 94.953 A 6.011 6.011 0 0 0 912.5 94.967 Q 912.104 94.993 911.658 95.07 A 11.841 11.841 0 0 0 910.8 95.253 Q 904.706 96.847 899.667 97.62 A 64.633 64.633 0 0 1 894 98.253 A 41.486 41.486 0 0 0 893.48 94.712 A 32.791 32.791 0 0 0 885.825 78.828 Q 878.85 70.953 867.45 70.953 Q 858.15 70.953 850.5 75.978 A 32.421 32.421 0 0 0 845.027 80.499 A 36.108 36.108 0 0 0 838.5 89.928 A 41.359 41.359 0 0 0 835.36 98.918 A 51.054 51.054 0 0 0 834.15 110.253 Q 834.15 118.653 837.45 125.853 Q 840.75 133.053 847.125 137.403 A 24.104 24.104 0 0 0 854.883 140.86 A 31.058 31.058 0 0 0 862.5 141.753 A 27.079 27.079 0 0 0 872.327 139.961 A 29.732 29.732 0 0 0 881.55 134.178 A 34.378 34.378 0 0 0 888.909 124.711 A 42.769 42.769 0 0 0 892.8 114.003 A 78.459 78.459 0 0 0 899.414 113.453 A 64.335 64.335 0 0 0 912.6 110.403 Q 915.999 109.348 916.742 104.723 A 18.161 18.161 0 0 0 916.95 101.853 A 15.846 15.846 0 0 0 916.927 100.977 Q 916.866 99.887 916.652 98.952 A 8.143 8.143 0 0 0 915.9 96.903 A 4.739 4.739 0 0 0 915.388 96.131 Z M 867.6 86.853 L 866.85 86.853 A 11.059 11.059 0 0 0 858.574 90.52 A 17.092 17.092 0 0 0 856.875 92.628 Q 852.9 98.403 852.9 108.903 A 33.839 33.839 0 0 0 853.207 113.623 Q 853.895 118.495 856.125 121.503 A 13.268 13.268 0 0 0 858.251 123.797 A 8.295 8.295 0 0 0 863.7 125.853 A 10.632 10.632 0 0 0 871.239 122.759 A 14.59 14.59 0 0 0 872.025 121.953 A 16.209 16.209 0 0 0 874.704 117.795 Q 875.567 115.911 876.15 113.611 A 34.269 34.269 0 0 0 876.75 110.703 Q 872.1 107.553 869.625 102.453 Q 867.15 97.353 867.15 91.653 Q 867.15 89.253 867.6 86.853 Z" id="12" vector-effect="non-scaling-stroke"/>
		<path d="M 907.8 121.953 L 909.75 119.553 Q 918 109.353 922.2 102.753 Q 924.75 98.403 928.2 91.128 Q 931.65 83.853 934.95 76.053 Q 937.8 69.453 946.8 69.453 Q 949.916 69.453 951.629 69.866 A 5.733 5.733 0 0 1 952.65 70.203 Q 954.3 70.953 954.3 72.603 A 4.181 4.181 0 0 1 954.258 73.155 Q 954.179 73.737 953.954 74.574 A 25.303 25.303 0 0 1 953.7 75.453 A 21.175 21.175 0 0 1 952.428 78.622 A 24.106 24.106 0 0 1 952.05 79.353 A 35.118 35.118 0 0 0 950.626 82.567 Q 949.35 85.925 949.35 88.503 Q 949.35 90.363 950.427 92.532 A 15.624 15.624 0 0 0 950.925 93.453 Q 952.428 96.03 955.502 99.836 A 109.502 109.502 0 0 0 955.8 100.203 Q 960.6 106.503 963.075 110.928 Q 965.55 115.353 965.55 120.603 Q 965.55 121.751 965.374 123.603 A 75.652 75.652 0 0 1 965.25 124.803 A 22.082 22.082 0 0 0 969.839 122.278 Q 974.237 119.21 979.385 113.361 A 110.076 110.076 0 0 0 982.5 109.653 A 7.146 7.146 0 0 1 983.76 108.479 A 4.706 4.706 0 0 1 986.55 107.553 A 3.338 3.338 0 0 1 989.174 108.741 A 4.747 4.747 0 0 1 989.625 109.353 A 6.564 6.564 0 0 1 990.364 111.075 Q 990.593 111.896 990.686 112.88 A 15.12 15.12 0 0 1 990.75 114.303 A 18.637 18.637 0 0 1 990.333 118.359 Q 989.68 121.286 988.009 123.463 A 11.911 11.911 0 0 1 987.9 123.603 A 73.033 73.033 0 0 1 983.279 128.837 Q 978.267 133.957 973.575 136.278 A 32.598 32.598 0 0 1 966.468 138.766 Q 963.146 139.537 959.313 139.819 A 59.949 59.949 0 0 1 956.7 139.953 Q 950.7 145.053 942.45 145.053 A 27.127 27.127 0 0 1 937.934 144.701 Q 933.361 143.928 930.525 141.453 A 14.129 14.129 0 0 1 928.177 138.871 A 9.51 9.51 0 0 1 926.4 133.353 A 9.207 9.207 0 0 1 929.162 126.692 A 11.697 11.697 0 0 1 929.25 126.603 A 9.047 9.047 0 0 1 932.974 124.4 Q 934.402 123.945 936.134 123.81 A 19.503 19.503 0 0 1 937.65 123.753 Q 939.6 123.753 942.225 124.128 A 274.149 274.149 0 0 0 943.458 124.301 Q 944.647 124.466 945.497 124.57 A 61.024 61.024 0 0 0 946.2 124.653 Q 946.05 120.753 944.475 117.303 A 36.511 36.511 0 0 0 940.797 111.032 A 40.303 40.303 0 0 0 940.5 110.628 A 110.337 110.337 0 0 0 938.316 107.786 Q 937.266 106.466 936.28 105.325 A 65.728 65.728 0 0 0 936 105.003 Q 931.35 113.853 926.775 119.703 Q 922.2 125.553 916.8 130.803 Q 914.518 133.085 912.022 133.438 A 6.569 6.569 0 0 1 911.1 133.503 A 5.42 5.42 0 0 1 909.141 133.161 A 4.862 4.862 0 0 1 907.2 131.778 A 6.067 6.067 0 0 1 905.744 128.355 A 8.003 8.003 0 0 1 905.7 127.503 A 8.33 8.33 0 0 1 907.251 122.679 A 10.769 10.769 0 0 1 907.8 121.953 Z" id="13" vector-effect="non-scaling-stroke"/>
	</g>
</svg>